<?xml version="1.0" encoding="UTF-8"?>
<svg version="1.1" xmlns="http://www.w3.org/2000/svg" width="1080" height="656">
<path d="M0 0 C0.97549805 0.01879211 0.97549805 0.01879211 1.97070312 0.03796387 C39.49663887 0.75673288 76.99573583 1.40950496 114.52734375 0.73828125 C115.54188566 0.72028599 115.54188566 0.72028599 116.57692337 0.70192719 C124.04179555 0.56913869 131.50633187 0.4266068 138.97070312 0.26806641 C141.44791642 0.21906322 143.92512995 0.17007177 146.40234375 0.12109375 C147.56064194 0.09404861 148.71894012 0.06700348 149.91233826 0.03913879 C150.96599075 0.01905258 152.01964325 -0.00103363 153.10522461 -0.02172852 C154.03048447 -0.04171402 154.95574432 -0.06169952 155.90904236 -0.08229065 C158 0 158 0 159 1 C159.23527773 3.34987262 159.41386417 5.70556039 159.5625 8.0625 C159.64628906 9.35285156 159.73007813 10.64320313 159.81640625 11.97265625 C159.87699219 12.97167969 159.93757812 13.97070312 160 15 C158.28901123 15.46841309 158.28901123 15.46841309 156.54345703 15.94628906 C152.31592398 17.10816503 148.09445695 18.29086805 143.87451172 19.47998047 C142.04667505 19.99187861 140.21723896 20.49810085 138.38623047 20.99853516 C135.75568334 21.71854941 133.13154954 22.45873065 130.5078125 23.203125 C129.68693146 23.42309143 128.86605042 23.64305786 128.02029419 23.86968994 C123.83732397 24.92695319 123.83732397 24.92695319 120.79332411 27.74665278 C119.84971567 30.4268656 119.68045974 32.6758834 119.59148216 35.51742268 C119.55354723 36.62088714 119.51561229 37.72435161 119.47652781 38.86125439 C119.4462765 40.05392841 119.41602519 41.24660243 119.38485718 42.47541809 C119.32848904 44.34881118 119.32848904 44.34881118 119.27098215 46.26005059 C118.89882957 59.63699546 118.84759192 73.01210851 118.84228516 86.39331055 C118.83814765 89.10561329 118.83251721 91.81791239 118.82688904 94.5302124 C118.81551414 100.30879751 118.80719307 106.08737992 118.80076981 111.86597252 C118.79029318 121.02824614 118.76969781 130.1904854 118.74765015 139.35273743 C118.74017592 142.50789536 118.73276149 145.66305344 118.72536278 148.81821156 C118.72258693 150.00002515 118.72258693 150.00002515 118.719755 151.20571378 C118.69894691 160.11736384 118.68005881 169.02901757 118.66210938 177.94067383 C118.66047119 178.75266355 118.65883301 179.56465326 118.65714519 180.40124873 C118.63083616 193.57105423 118.61219406 206.74086247 118.59551747 219.91068318 C118.57801442 233.51594198 118.54909526 247.12114688 118.5106281 260.72636253 C118.48743931 269.07346484 118.47325289 277.42047932 118.47130047 285.7676141 C118.46916903 291.4951872 118.456059 297.22267307 118.43482114 302.95020684 C118.42296458 306.23651592 118.41719986 309.52262161 118.42153358 312.80895424 C118.4617679 349.15826027 115.41456469 387.12880842 91 416 C90.50483887 416.60013916 90.00967773 417.20027832 89.49951172 417.81860352 C85.43311013 422.63559267 81.15305054 426.64447139 76.125 430.4375 C75.39176514 430.9931665 74.65853027 431.54883301 73.90307617 432.12133789 C66.38546174 437.67358389 58.43264206 442.01255297 50 446 C48.8759375 446.54011719 47.751875 447.08023437 46.59375 447.63671875 C30.38168089 454.9900501 13.14298585 459.3674036 -4.125 463.4375 C-5.2626178 463.70672272 -5.2626178 463.70672272 -6.42321777 463.98138428 C-8.59583389 464.49264696 -10.77005962 464.99618036 -12.9453125 465.49609375 C-14.20875488 465.78669678 -15.47219727 466.0772998 -16.77392578 466.37670898 C-20 467 -20 467 -24 467 C-24.67610423 465.10751181 -25.34050439 463.2108398 -26 461.3125 C-26.37125 460.25675781 -26.7425 459.20101563 -27.125 458.11328125 C-27.94676868 455.18939892 -28.07120628 453.00178987 -28 450 C-27.37657715 449.69408936 -26.7531543 449.38817871 -26.11083984 449.07299805 C1.27005445 435.52381956 22.01935392 419.04926252 32.7890625 389.6171875 C41.22471681 364.41907173 40.15437971 337.05398767 40.16004276 310.82880759 C40.16192083 307.07304078 40.16948019 303.31728417 40.17617798 299.56152344 C40.18963885 291.38902122 40.1957637 283.21652399 40.20018864 275.04401255 C40.2029661 269.93599629 40.20720549 264.82798189 40.21169281 259.71996689 C40.2238583 245.55462069 40.23417013 231.38927594 40.2375679 217.22392464 C40.23778747 216.32132548 40.23800703 215.41872631 40.23823325 214.48877566 C40.23845153 213.58418288 40.23866981 212.6795901 40.2388947 211.74758542 C40.23933815 209.91489418 40.23978471 208.08220295 40.24023438 206.24951172 C40.2404558 205.34045845 40.24067723 204.43140518 40.24090537 203.49480484 C40.24486598 188.71688849 40.2623704 173.93902105 40.2855939 159.16112365 C40.30928794 143.96069924 40.32176848 128.76029947 40.32293582 113.5598563 C40.32385248 105.03596175 40.32960468 96.5121314 40.34775543 87.98825455 C40.36312848 80.74429954 40.36829261 73.50042866 40.36001733 66.25646044 C40.35610393 62.56155932 40.35707469 58.86682785 40.37107468 55.17194748 C40.38610071 51.16993837 40.37796999 47.16831373 40.36749268 43.16629028 C40.37554908 41.99540269 40.38360548 40.8245151 40.39190602 39.61814606 C40.38531618 38.54702226 40.37872633 37.47589846 40.3719368 36.37231636 C40.37283243 34.98716699 40.37283243 34.98716699 40.37374616 33.57403481 C39.91747058 30.43160995 38.86359456 28.55260131 37 26 C34.4125038 24.64418817 34.4125038 24.64418817 31.37109375 23.8671875 C30.25283203 23.53589844 29.13457031 23.20460937 27.98242188 22.86328125 C26.81259766 22.53714844 25.64277344 22.21101563 24.4375 21.875 C23.29474609 21.54113281 22.15199219 21.20726562 20.97460938 20.86328125 C17.65358147 19.89488546 14.32736854 18.94633904 11 18 C9.07281747 17.44494662 7.14687527 16.88555398 5.22265625 16.3203125 C4.42738525 16.08844238 3.63211426 15.85657227 2.81274414 15.61767578 C1 15 1 15 0 14 C-0.07271741 11.64686445 -0.08370868 9.29166332 -0.0625 6.9375 C-0.05347656 5.64714844 -0.04445313 4.35679687 -0.03515625 3.02734375 C-0.02355469 2.02832031 -0.01195313 1.02929688 0 0 Z " fill="#000000" transform="translate(28,166)"/>
<path d="M0 0 C1.20432253 0.00138269 1.20432253 0.00138269 2.43297482 0.00279331 C3.810751 0.00073132 3.810751 0.00073132 5.21636105 -0.00137234 C6.73981388 0.00402058 6.73981388 0.00402058 8.29404354 0.00952244 C9.35732876 0.00937641 10.42061398 0.00923038 11.51611996 0.00907993 C15.04945535 0.00977958 18.58273878 0.0175744 22.11606503 0.02539158 C24.55844246 0.02725557 27.00082026 0.02867956 29.4431982 0.0296793 C35.88600342 0.03350594 42.32878626 0.04333746 48.7715826 0.05438328 C55.34018304 0.06459427 61.90878707 0.06917625 68.47739315 0.0742197 C81.37649155 0.0849596 94.2755733 0.10203776 107.17465878 0.12304783 C107.66965878 5.56804783 107.66965878 5.56804783 108.17465878 11.12304783 C95.30465878 15.08304783 95.30465878 15.08304783 82.17465878 19.12304783 C81.05035545 33.57356992 81.01086588 47.9698911 81.00669003 62.45898533 C81.00428501 64.43700884 81.00187752 66.41503236 80.99922961 68.39305556 C80.99114157 74.60400025 80.98863998 80.8149305 80.98935604 87.02587986 C80.98995403 93.35366704 80.97944473 99.68136821 80.96361238 106.0091337 C80.95036341 111.5079103 80.94517934 117.00665943 80.94581145 122.5054518 C80.94606162 125.76007199 80.94250481 129.01460054 80.9326334 132.26920795 C79.72703516 177.36786454 79.72703516 177.36786454 97.23715878 217.69336033 C109.10007283 229.16375149 124.75007417 231.52049836 140.54965878 231.43554783 C141.64947079 231.42990818 142.7492828 231.42426853 143.88242245 231.41845798 C159.91032102 231.1786509 173.98424946 227.16884196 185.85434628 215.79492283 C204.9754165 193.77672075 203.64668231 162.09647703 203.51177216 134.72640872 C203.49645309 131.00180392 203.49790389 127.2771985 203.49710751 123.55256748 C203.49344836 117.31909227 203.4786417 111.08572942 203.45590878 104.85229588 C203.42687168 96.87450214 203.41666351 88.89679761 203.41222668 80.91895676 C203.40823833 74.00933485 203.39575465 67.09973194 203.38187981 60.1901238 C203.37780447 57.98969234 203.3748674 55.78926152 203.37208462 53.58882809 C203.36624496 49.48586107 203.35155276 45.38297113 203.33579159 41.28003025 C203.3341148 39.4728603 203.3341148 39.4728603 203.33240414 37.62918186 C203.30067352 31.37822298 203.0002983 25.32077001 202.17465878 19.12304783 C201.09196712 18.81282688 201.09196712 18.81282688 199.98740292 18.49633884 C196.73634145 17.56278269 193.48674233 16.62423477 190.23715878 15.68554783 C189.10085018 15.36005955 187.96454159 15.03457127 186.7937994 14.6992197 C185.71420956 14.38662205 184.63461971 14.07402439 183.52231503 13.75195408 C182.52208309 13.46392918 181.52185116 13.17590427 180.49130917 12.87915134 C178.17465878 12.12304783 178.17465878 12.12304783 177.17465878 11.12304783 C177.10239376 9.27017281 177.09084658 7.41470905 177.11215878 5.56054783 C177.12118221 4.54863377 177.13020565 3.5367197 177.13950253 2.49414158 C177.15690487 1.32045017 177.15690487 1.32045017 177.17465878 0.12304783 C187.58808802 0.09992424 198.00151121 0.08213266 208.41496086 0.07123566 C213.24982704 0.06600686 218.08467572 0.05890929 222.91953182 0.04760838 C227.58142997 0.03677936 232.24331123 0.03077097 236.90522099 0.02817059 C238.68790166 0.02631636 240.47058136 0.0226958 242.25325489 0.01731777 C244.74131838 0.01010714 247.22931121 0.00905689 249.71738338 0.00952244 C250.46184719 0.00592716 251.206311 0.00233189 251.97333431 -0.00137234 C257.06060661 0.00899567 257.06060661 0.00899567 258.17465878 1.12304783 C258.40752886 2.80488731 258.58730044 4.49428943 258.73715878 6.18554783 C258.86284237 7.56420017 258.86284237 7.56420017 258.99106503 8.97070408 C259.05165096 9.68097752 259.1122369 10.39125095 259.17465878 11.12304783 C256.00893748 12.08452261 252.84191516 13.04164316 249.67465878 13.99804783 C248.78778378 14.26746189 247.90090878 14.53687595 246.98715878 14.81445408 C245.67231503 15.2108408 245.67231503 15.2108408 244.33090878 15.61523533 C243.53491268 15.85612888 242.73891659 16.09702244 241.9187994 16.3452158 C238.35669458 17.35490138 234.76787412 18.23012872 231.17465878 19.12304783 C231.17134863 19.82190255 231.16803848 20.52075727 231.16462803 21.24078941 C231.08302623 38.33015094 230.99081611 55.41942327 230.88713169 72.50866508 C230.8372382 80.77325541 230.79079493 89.03783696 230.75278378 97.30249119 C230.71960272 104.51497419 230.67963263 111.72738398 230.63186872 118.93978566 C230.60685996 122.75050095 230.58500684 126.56116932 230.57131481 130.37194347 C230.29449911 204.4729734 230.29449911 204.4729734 205.17465878 230.12304783 C204.51465878 230.12304783 203.85465878 230.12304783 203.17465878 230.12304783 C203.17465878 230.78304783 203.17465878 231.44304783 203.17465878 232.12304783 C179.4522802 252.55399655 149.63046526 257.83480083 119.17465878 255.81054783 C96.02665593 254.04250397 70.54364697 248.76296739 53.17465878 232.12304783 C53.17465878 231.46304783 53.17465878 230.80304783 53.17465878 230.12304783 C52.51465878 230.12304783 51.85465878 230.12304783 51.17465878 230.12304783 C51.17465878 229.46304783 51.17465878 228.80304783 51.17465878 228.12304783 C50.51465878 228.12304783 49.85465878 228.12304783 49.17465878 228.12304783 C29.16199189 205.58004375 26.04105897 174.61872943 26.01694393 145.82153416 C26.01225898 144.45489437 26.00711276 143.0882561 26.00154781 141.72161961 C25.99039653 138.81184446 25.98190205 135.90207878 25.97542858 132.99228954 C25.96463182 128.39063047 25.94436587 123.78904182 25.92230892 119.18742466 C25.86074609 106.11415872 25.80620947 93.04090237 25.77329159 79.96753025 C25.75496986 72.72211856 25.72608671 65.47683034 25.68528688 58.23150939 C25.66421803 54.40582739 25.64875935 50.5803007 25.64647961 46.75455761 C25.64433886 43.16825129 25.62852924 39.58227121 25.60208988 35.99606419 C25.59143741 34.05137586 25.59565798 32.10662399 25.60027218 30.16191196 C25.58917919 29.0084528 25.5780862 27.85499363 25.56665707 26.66658115 C25.56334692 25.66249619 25.56003677 24.65841124 25.55662632 23.62389946 C25.11252756 20.71625682 24.50557122 19.85570954 22.17465878 18.12304783 C19.58434183 17.07545123 19.58434183 17.07545123 16.63169003 16.29882908 C15.55854549 15.99267673 14.48540096 15.68652439 13.3797369 15.3710947 C12.26018612 15.06236423 11.14063534 14.75363377 9.98715878 14.43554783 C8.85600643 14.1152158 7.72485409 13.79488377 6.5594244 13.4648447 C3.76686388 12.67538667 0.97204746 11.89518921 -1.82534122 11.12304783 C-2.019406 9.47797565 -2.20542058 7.83195189 -2.38784122 6.18554783 C-2.49225529 5.26902439 -2.59666935 4.35250095 -2.70424747 3.40820408 C-2.74420841 2.65410252 -2.78416935 1.90000095 -2.82534122 1.12304783 C-1.82534122 0.12304783 -1.82534122 0.12304783 0 0 Z " fill="#000000" transform="translate(612.8253412246704,165.87695217132568)"/>
<path d="M0 0 C23.58219629 -0.02332634 47.16439085 -0.04097787 70.74659634 -0.05181217 C81.69540733 -0.05697569 92.64421117 -0.06401946 103.59301758 -0.07543945 C113.13232731 -0.08538458 122.67163185 -0.09185302 132.21094662 -0.09408849 C137.26524023 -0.09539589 142.31951903 -0.09848358 147.37380791 -0.10573006 C152.12528784 -0.11248757 156.87674677 -0.11461751 161.62823105 -0.11310768 C163.37743684 -0.11338413 165.1266433 -0.11539084 166.87584496 -0.11920547 C169.25335148 -0.12413854 171.63077736 -0.12299974 174.00828552 -0.12025452 C174.70963432 -0.12316736 175.41098312 -0.1260802 176.13358492 -0.12908131 C180.88587879 -0.11412121 180.88587879 -0.11412121 182 1 C182.26768118 6.35534776 181.5779256 11.24422707 180.57421875 16.46875 C180.42596146 17.26671997 180.27770416 18.06468994 180.12495422 18.88684082 C179.6516647 21.42569896 179.16963415 23.96280837 178.6875 26.5 C178.37509662 28.17177149 178.06324322 29.84364585 177.75195312 31.515625 C175.91237405 41.35956517 173.99112503 51.18560906 172 61 C167.82262526 62.59138085 164.46839215 63.21278058 160 63 C159.80365967 62.20940186 159.60731934 61.41880371 159.4050293 60.60424805 C158.6623699 57.61636977 157.91858027 54.62877556 157.17407227 51.64135742 C156.69918532 49.73442303 156.22555335 47.82717624 155.75195312 45.91992188 C154.10418174 39.31149136 152.4068323 32.72934217 150.52661133 26.18286133 C150 24 150 24 150 21 C127.89 21 105.78 21 83 21 C83 51.03 83 81.06 83 112 C99.8557237 112.05073302 99.8557237 112.05073302 116.6875 111.625 C117.67298828 111.5940625 118.65847656 111.563125 119.67382812 111.53125 C120.61033203 111.49257813 121.54683594 111.45390625 122.51171875 111.4140625 C123.33115967 111.3826416 124.15060059 111.3512207 124.99487305 111.31884766 C127.22627975 111.16524465 127.22627975 111.16524465 129 109 C129.68796386 106.97952451 129.68796386 106.97952451 130.18359375 104.640625 C130.38919922 103.77179688 130.59480469 102.90296875 130.80664062 102.0078125 C131.22362277 100.18496797 131.64029493 98.3620525 132.05664062 96.5390625 C133.21867399 91.63028605 134.50487313 87.3937511 137 83 C140.96 83 144.92 83 149 83 C149 108.41 149 133.82 149 160 C144.71 160.33 140.42 160.66 136 161 C135.25943359 158.23689453 135.25943359 158.23689453 134.50390625 155.41796875 C133.85681809 153.00779981 133.20968009 150.59764425 132.5625 148.1875 C132.23701172 146.97255859 131.91152344 145.75761719 131.57617188 144.50585938 C131.26357422 143.34248047 130.95097656 142.17910156 130.62890625 140.98046875 C130.34088135 139.90692139 130.05285645 138.83337402 129.75610352 137.72729492 C129.22263388 135.8030491 128.63145165 133.89435495 128 132 C105.725 131.505 105.725 131.505 83 131 C83 163.01 83 195.02 83 228 C106.1 228 129.2 228 153 228 C153.99 225.03 154.98 222.06 156 219 C157.14317378 216.53940425 158.30308613 214.14696955 159.5625 211.75 C162.03887215 207.02732015 164.31874097 202.31185738 166.32421875 197.3671875 C172.35001255 182.8874046 172.35001255 182.8874046 177.3046875 180.22265625 C180.37889834 179.7271658 182.91653258 179.76414115 186 180 C186.20701625 193.09602772 185.58797143 206.00942512 184.5625 219.0625 C184.42585431 220.87951392 184.28978459 222.69657124 184.15429688 224.51367188 C184.02135028 226.27087252 183.88790507 228.02803553 183.75390625 229.78515625 C183.6934462 230.57906265 183.63298615 231.37296906 183.57069397 232.19093323 C183.26016765 236.13586606 182.91346633 240.07631921 182.51538086 244.01342773 C182.40376869 245.12426979 182.40376869 245.12426979 182.28990173 246.2575531 C182 248 182 248 181 249 C178.67190162 249.08523988 176.37421546 249.10500025 174.04624939 249.08229065 C173.31035554 249.07906152 172.57446169 249.07583239 171.81626803 249.07250541 C169.33180666 249.06036907 166.84745257 249.04100923 164.36303711 249.02172852 C162.58951556 249.0115922 160.81599143 249.00189784 159.04246521 248.99261475 C154.2120647 248.96606885 149.38172362 248.93330278 144.55136943 248.89946485 C139.50916672 248.86518584 134.46693206 248.83656498 129.42469788 248.80735779 C119.86947531 248.75114219 110.31429274 248.68979827 100.75911385 248.62663645 C89.88386763 248.55499656 79.00858932 248.48903632 68.13330448 248.42356598 C45.75549468 248.28872135 23.37773497 248.14670245 1 248 C0.67 245.03 0.34 242.06 0 239 C6.7136582 236.68073626 13.49192937 234.65807719 20.32202148 232.71411133 C23.95145533 231.91007715 23.95145533 231.91007715 27 230 C27.09785121 227.29407755 27.1299368 224.61368824 27.12025452 221.90733337 C27.12153615 220.61973274 27.12153615 220.61973274 27.12284368 219.30611998 C27.12450112 216.4071029 27.11897282 213.50814268 27.11352539 210.60913086 C27.11324355 208.54004416 27.11340119 206.47095737 27.1139679 204.40187073 C27.11425599 198.76573737 27.10835733 193.12962509 27.10139394 187.49349666 C27.09516239 181.61045738 27.09455676 175.72741768 27.09336853 169.84437561 C27.09025462 158.69545772 27.08204044 147.54654958 27.07201904 136.397636 C27.06085974 123.70861732 27.05534792 111.01959818 27.05032361 98.33057582 C27.03985787 72.22037847 27.02225729 46.11018978 27 20 C25.59714847 19.36125368 24.19259116 18.72625306 22.78735352 18.09277344 C22.00538101 17.73874451 21.22340851 17.38471558 20.41773987 17.0199585 C16.68005185 15.4431608 12.84023025 14.33770221 8.9375 13.25 C8.16728516 13.02957031 7.39707031 12.80914062 6.60351562 12.58203125 C4.73733852 12.04883779 2.8689052 11.52355094 1 11 C0.67 7.37 0.34 3.74 0 0 Z " fill="#000000" transform="translate(210,166)"/>
<path d="M0 0 C0.834104 -0.00045319 1.66820801 -0.00090637 2.52758789 -0.00137329 C16.9440225 0.02155098 30.68767428 1.39858887 44.8125 4.375 C46.33144574 4.66583519 47.85094105 4.95382204 49.37109375 5.23828125 C58.46076128 7.02326128 58.46076128 7.02326128 60.8125 9.375 C60.69335938 11.73291016 60.69335938 11.73291016 60.15625 14.7890625 C59.95515625 15.95985352 59.7540625 17.13064453 59.546875 18.33691406 C59.30256884 19.68303091 59.05774887 21.02905458 58.8125 22.375 C58.5463281 23.87978618 58.28072622 25.38467327 58.015625 26.88964844 C57.28668916 30.99828201 56.53762359 35.10296975 55.78076172 39.20654297 C55.30957215 41.76590322 54.844132 44.32626855 54.37890625 46.88671875 C54.07586847 48.53652222 53.77249505 50.18626409 53.46875 51.8359375 C53.33223022 52.59023041 53.19571045 53.34452332 53.05505371 54.12167358 C52.21634479 58.63305472 51.14020406 62.98186156 49.8125 67.375 C46.5125 68.035 43.2125 68.695 39.8125 69.375 C36.78560588 64.0376364 35.40824714 58.55500546 33.9375 52.625 C33.67557861 51.61598633 33.41365723 50.60697266 33.14379883 49.56738281 C31.88532034 44.7169094 30.68673905 39.86703522 29.62890625 34.96875 C28.17528401 27.0084219 28.17528401 27.0084219 23.74609375 20.63671875 C21.34896401 19.7808907 19.34760668 19.49003102 16.8125 19.375 C15.760625 19.148125 14.70875 18.92125 13.625 18.6875 C-2.3973169 17.37419534 -16.51665547 18.94018686 -29.1875 29.375 C-29.8475 29.375 -30.5075 29.375 -31.1875 29.375 C-31.1875 30.035 -31.1875 30.695 -31.1875 31.375 C-31.8475 31.375 -32.5075 31.375 -33.1875 31.375 C-34.60925092 34.18024845 -35.95859884 37.00740199 -37.25 39.875 C-37.59160156 40.6278125 -37.93320312 41.380625 -38.28515625 42.15625 C-41.68129247 50.5069226 -41.60223002 61.96564479 -38.22265625 70.328125 C-29.75909652 87.06361669 -14.31241431 94.52190999 1.96557617 102.17333984 C10.15805495 106.02807834 18.17728418 110.13378717 26.12792969 114.46289062 C27.59077929 115.25494948 29.06406354 116.02767784 30.5390625 116.796875 C36.12453383 119.75276017 40.93920245 123.36477304 45.8125 127.375 C46.48152344 127.88546875 47.15054688 128.3959375 47.83984375 128.921875 C57.93349162 136.9967933 64.06673595 148.17765909 67.8125 160.375 C68.05742188 161.15746094 68.30234375 161.93992187 68.5546875 162.74609375 C72.95356212 180.1306873 69.85609631 200.55695257 61.8125 216.375 C58.93006381 221.04804049 55.59710292 225.39980557 51.8125 229.375 C51.1525 229.375 50.4925 229.375 49.8125 229.375 C49.57789063 229.95765625 49.34328125 230.5403125 49.1015625 231.140625 C43.89494226 240.16543342 29.94127513 245.21530021 20.8125 249.375 C19.47832031 249.99375 19.47832031 249.99375 18.1171875 250.625 C-14.51435719 264.05534637 -58.60834767 259.25939862 -91.1875 248.375 C-93.1875 246.375 -93.1875 246.375 -93.3046875 243.8125 C-92.55117764 233.11752137 -90.93244429 222.60248993 -89.23828125 212.01953125 C-88.10758143 204.95445785 -87.10347937 197.87417581 -86.13916016 190.78466797 C-86.02749512 189.9804541 -85.91583008 189.17624023 -85.80078125 188.34765625 C-85.70579346 187.64906494 -85.61080566 186.95047363 -85.51293945 186.23071289 C-85.1875 184.375 -85.1875 184.375 -84.1875 181.375 C-80.11282275 179.88617562 -76.52208585 179.11229783 -72.1875 179.375 C-70.77771334 182.69133809 -69.77168382 185.84604895 -69.06518555 189.37719727 C-68.86704758 190.34492569 -68.66890961 191.31265411 -68.46476746 192.30970764 C-68.25338638 193.34316818 -68.04200531 194.37662872 -67.82421875 195.44140625 C-67.0977962 198.78503128 -66.36117354 202.12630823 -65.6237793 205.4675293 C-65.125083 207.7785728 -64.64552123 210.09382929 -64.18530273 212.4128418 C-62.23032669 225.43753723 -62.23032669 225.43753723 -55.16186523 235.76171875 C-51.71222773 236.87239465 -48.80085822 237.27366494 -45.1875 237.375 C-43.71174996 237.59835104 -42.23639982 237.82438422 -40.76171875 238.0546875 C-23.40924191 238.92667126 -8.53463657 237.42459514 5.8125 226.625 C13.77890628 219.04178795 16.72973422 208.47949189 17.0625 197.8125 C16.745124 186.5456519 12.77053426 177.72735814 5.1171875 169.52734375 C-6.29318778 158.87121361 -22.90563372 152.41208415 -36.875 145.8125 C-49.55504114 139.80288875 -61.59248129 133.74825078 -72.1875 124.375 C-73.12142578 123.56482422 -73.12142578 123.56482422 -74.07421875 122.73828125 C-85.74223898 111.90930967 -92.50632065 97.06405509 -93.29418945 81.23095703 C-93.88833042 60.01704732 -89.60946961 41.19249308 -74.625 25.25 C-54.21523166 5.797422 -27.37224337 -0.05786586 0 0 Z " fill="#000000" transform="translate(521.1875,162.625)"/>
<path d="M0 0 C1.24541565 0.00598206 1.24541565 0.00598206 2.51599121 0.01208496 C22.0372586 0.12178134 40.42211797 2.7654719 59.375 7.375 C60.56465233 12.4335133 60.0425875 16.69418199 59.046875 21.7109375 C58.89720276 22.50795074 58.74753052 23.30496399 58.59332275 24.12612915 C58.11346274 26.66935001 57.61954443 29.20959825 57.125 31.75 C56.80764998 33.41778944 56.49123565 35.08575722 56.17578125 36.75390625 C55.55415319 40.03327199 54.92707968 43.31151529 54.29492188 46.58886719 C53.39536338 51.25701979 52.5146971 55.92857774 51.640625 60.6015625 C51.51202087 61.28898529 51.38341675 61.97640808 51.25091553 62.68466187 C50.95865339 64.24805367 50.66677758 65.81151769 50.375 67.375 C44.93 68.365 44.93 68.365 39.375 69.375 C36.61486792 62.574173 34.70671228 55.59108802 32.84057617 48.50341797 C32.31511466 46.5099195 31.78206721 44.51856441 31.24804688 42.52734375 C29.38146149 35.51840561 27.66466822 28.51502439 26.375 21.375 C10.01243324 17.7627645 -7.26073088 15.56541326 -22.62109375 24.03125 C-31.58340637 30.04106587 -37.54152512 36.84243697 -40.4375 47.3125 C-41.1182554 58.43150489 -40.55877408 66.60921224 -34.84375 76.296875 C-33.67733275 78.28576596 -32.63333317 80.30231516 -31.625 82.375 C-30.965 82.375 -30.305 82.375 -29.625 82.375 C-29.625 83.035 -29.625 83.695 -29.625 84.375 C-29.05265625 84.64054687 -28.4803125 84.90609375 -27.890625 85.1796875 C-25.51589735 86.43256105 -23.52033111 87.88725109 -21.375 89.5 C-15.18341277 93.88495108 -8.53041117 97.07863403 -1.71728516 100.36328125 C3.65711795 102.96205913 8.99109785 105.64354667 14.31884766 108.33642578 C15.71299724 109.04061865 17.10855482 109.74202961 18.50537109 110.44091797 C40.71486638 121.59831851 59.13885487 134.59382623 67.46484375 159.1484375 C72.7268645 177.8026398 70.3160806 199.24916813 61.25 216.19140625 C48.59766703 237.67401327 27.79302327 248.19468409 4.46875 254.48046875 C-6.60508499 257.04125729 -17.55507884 257.78012567 -28.875 257.75 C-29.61389465 257.74978851 -30.35278931 257.74957703 -31.11407471 257.74935913 C-82.39603462 257.60396538 -82.39603462 257.60396538 -93.625 246.375 C-93.84823728 237.03896281 -91.80501944 227.54369794 -90.25 218.375 C-89.79766617 215.65545922 -89.34972095 212.93520382 -88.90234375 210.21484375 C-88.73708946 209.21371803 -88.73708946 209.21371803 -88.5684967 208.19236755 C-87.10388068 199.2749438 -85.85261399 190.32759955 -84.625 181.375 C-79.69789099 179.95532452 -76.67318932 179.11074243 -71.625 180.375 C-64.37522675 207.98824559 -64.37522675 207.98824559 -61.22387695 221.83666992 C-59.97396346 227.80998739 -59.97396346 227.80998739 -57.625 233.375 C-46.14895647 240.2323898 -27.30391762 239.6469581 -14.64404297 236.92675781 C-4.24359998 234.08455695 5.45828028 228.55450183 11.375 219.375 C16.82756273 209.66010947 17.95071816 198.10217288 15.75 187.1875 C11.50607172 173.35113109 0.47630147 164.94187618 -11.7890625 158.33984375 C-16.52994268 155.87109614 -21.3697633 153.61595277 -26.22338867 151.37915039 C-32.34126253 148.55130542 -38.28537711 145.46117779 -44.203125 142.23828125 C-46.30778022 141.09225323 -48.42075431 139.9611652 -50.546875 138.85546875 C-70.29243323 128.49761089 -84.82570676 115.13770137 -91.625 93.375 C-95.94362411 74.74258565 -94.1970424 54.73653157 -84.68359375 37.94921875 C-74.61520777 22.62149698 -60.30152563 12.2081455 -43.1875 6 C-42.5692334 5.77344727 -41.9509668 5.54689453 -41.31396484 5.31347656 C-27.77017847 0.76812307 -14.16348522 -0.13851646 0 0 Z " fill="#000000" transform="translate(987.625,162.625)"/>
<path d="M0 0 C0.76827021 7.55907244 -1.67431453 12.05705592 -5.4375 18.5 C-5.97938965 19.45890137 -6.5212793 20.41780273 -7.07958984 21.40576172 C-8.18079048 23.35109731 -9.28914411 25.29240199 -10.40478516 27.22949219 C-12.28302419 30.49154553 -14.12619436 33.77230477 -15.96508789 37.05664062 C-17.05624997 39.0024047 -18.15646405 40.94280334 -19.2578125 42.8828125 C-20.57126654 45.23289395 -21.83048813 47.5765785 -23 50 C-21.94250786 51.28375463 -21.94250786 51.28375463 -19.515625 51.09765625 C-17.89914062 51.08025391 -17.89914062 51.08025391 -16.25 51.0625 C-15.0846875 51.05476563 -13.919375 51.04703125 -12.71875 51.0390625 C-11.4915625 51.02617187 -10.264375 51.01328125 -9 51 C-6.58337686 50.9746153 -4.16670323 50.95354007 -1.75 50.9375 C-0.13351562 50.92009766 -0.13351562 50.92009766 1.515625 50.90234375 C4 51 4 51 5 52 C7.00142822 52.12193932 9.00682165 52.17976515 11.01171875 52.2109375 C12.24470703 52.23929687 13.47769531 52.26765625 14.74804688 52.296875 C17.35468108 52.34856829 19.96147146 52.39295229 22.56835938 52.4296875 C23.80779297 52.460625 25.04722656 52.4915625 26.32421875 52.5234375 C27.45947998 52.54325684 28.59474121 52.56307617 29.7644043 52.58349609 C33.40169462 53.05170837 35.8216629 54.20956954 39 56 C39.94875 56.45375 40.8975 56.9075 41.875 57.375 C44 59 44 59 44.625 61.5 C44 64 44 64 41.75 65.75 C37.1044458 67.86161554 33.36534058 68.11365341 28.25 68.0625 C27.07953125 68.05347656 25.9090625 68.04445313 24.703125 68.03515625 C23.36507813 68.01775391 23.36507813 68.01775391 22 68 C21.8453125 68.928125 21.8453125 68.928125 21.6875 69.875 C21 72 21 72 18 74 C15.58918762 74.35440063 15.58918762 74.35440063 12.70239258 74.50244141 C11.08105156 74.5923082 11.08105156 74.5923082 9.42695618 74.68399048 C8.26125595 74.73928925 7.09555573 74.79458801 5.89453125 74.8515625 C4.10301888 74.94719986 4.10301888 74.94719986 2.27531433 75.04476929 C-1.54523263 75.24674712 -5.36629047 75.43601405 -9.1875 75.625 C-11.77543422 75.75958099 -14.36332566 75.89498723 -16.95117188 76.03125 C-23.30031567 76.36374964 -29.64992518 76.68581142 -36 77 C-37.41427096 80.28581026 -38.82644129 83.57251954 -40.23828125 86.859375 C-40.63245239 87.77509277 -41.02662354 88.69081055 -41.43273926 89.63427734 C-46.96121633 102.51231014 -52.21120341 115.47247638 -56.78637695 128.72119141 C-58.52737821 133.74085373 -60.41797452 138.68597061 -62.375 143.625 C-65.0269218 150.34032679 -67.4676124 157.10915458 -69.8125 163.9375 C-73.96846733 176.03586894 -78.40086685 188.0252081 -82.88085938 200.00683594 C-83.86598791 202.64158197 -84.84785297 205.27750692 -85.828125 207.9140625 C-86.8012797 210.5295271 -87.78386636 213.14062806 -88.7734375 215.75 C-89.54897989 217.80494036 -90.30661071 219.86680923 -91.0390625 221.9375 C-93.15319157 227.71268186 -95.73830516 231.54459176 -100 236 C-103.32406103 234.42875266 -105.59694427 232.83217282 -108 230 C-108 229.01 -108 228.02 -108 227 C-108.66 227 -109.32 227 -110 227 C-113.34453926 220.12431628 -114.46139097 215.55052001 -113 208 C-114.98 207.01 -116.96 206.02 -119 205 C-118.09117298 197.75554535 -116.05840459 191.06799499 -113.875 184.125 C-113.66290894 183.44591583 -113.45081787 182.76683167 -113.2322998 182.06716919 C-109.25825247 169.39628038 -104.82391725 156.90280904 -100.25 144.4375 C-99.77672272 143.14673553 -99.77672272 143.14673553 -99.29388428 141.82989502 C-95.76999646 132.24417794 -92.12016457 122.72292528 -88.29492188 113.25366211 C-86.62586147 109.05992757 -85.09421158 104.82963636 -83.625 100.5625 C-83.36589844 99.81935547 -83.10679687 99.07621094 -82.83984375 98.31054688 C-82.22350513 96.54142677 -81.61124807 94.77088538 -81 93 C-81.61875 93.99 -82.2375 94.98 -82.875 96 C-83.57625 96.99 -84.2775 97.98 -85 99 C-85.66 99 -86.32 99 -87 99 C-85.43247063 92.63583076 -83.85735533 86.28643343 -82 80 C-91.39863694 79.86614453 -100.68964854 80.25942301 -110.0625 80.9375 C-111.35349609 81.02451172 -112.64449219 81.11152344 -113.97460938 81.20117188 C-121.05942405 81.64189395 -121.05942405 81.64189395 -128 83 C-139.98747103 84.38591739 -139.98747103 84.38591739 -144.1328125 81.53125 C-146.30988649 78.53331204 -147.05521237 76.2442503 -146.890625 72.53515625 C-146.26956377 69.94600232 -145.56903621 68.15339867 -144 66 C-140.5 64.875 -140.5 64.875 -138.375 64.5703125 C-130.67904455 62.72227057 -121.60900442 55.60900442 -116 50 C-114.48049197 49.90024288 -112.95637151 49.86919285 -111.43359375 49.8671875 C-110.48105713 49.86525391 -109.52852051 49.86332031 -108.54711914 49.86132812 C-107.00785767 49.8680957 -107.00785767 49.8680957 -105.4375 49.875 C-104.39134521 49.87693359 -103.34519043 49.87886719 -102.26733398 49.88085938 C-95.08226848 49.92055892 -87.98173741 50.24685521 -80.81640625 50.77734375 C-74.21341279 51.16257469 -67.6113653 51.07912538 -61 51 C-60.76925781 50.4423999 -60.53851562 49.8847998 -60.30078125 49.31030273 C-45.34206747 13.33622203 -45.34206747 13.33622203 -37 7 C-34.44140625 6.328125 -34.44140625 6.328125 -32 6 C-26.31990665 5.10314316 -21.50852198 3.11630626 -16.875 -0.3125 C-11.72292198 -3.45112224 -5.52881677 -1.23047351 0 0 Z " fill="#FB0E01" transform="translate(1036,420)"/>
<path d="M0 0 C0.76827021 7.55907244 -1.67431453 12.05705592 -5.4375 18.5 C-5.97938965 19.45890137 -6.5212793 20.41780273 -7.07958984 21.40576172 C-8.18079048 23.35109731 -9.28914411 25.29240199 -10.40478516 27.22949219 C-12.28302419 30.49154553 -14.12619436 33.77230477 -15.96508789 37.05664062 C-17.05624997 39.0024047 -18.15646405 40.94280334 -19.2578125 42.8828125 C-20.57126654 45.23289395 -21.83048813 47.5765785 -23 50 C-21.94250786 51.28375463 -21.94250786 51.28375463 -19.515625 51.09765625 C-17.89914062 51.08025391 -17.89914062 51.08025391 -16.25 51.0625 C-15.0846875 51.05476563 -13.919375 51.04703125 -12.71875 51.0390625 C-11.4915625 51.02617187 -10.264375 51.01328125 -9 51 C-6.58337686 50.9746153 -4.16670323 50.95354007 -1.75 50.9375 C-0.13351562 50.92009766 -0.13351562 50.92009766 1.515625 50.90234375 C4 51 4 51 5 52 C7.00142822 52.12193932 9.00682165 52.17976515 11.01171875 52.2109375 C12.24470703 52.23929687 13.47769531 52.26765625 14.74804688 52.296875 C17.35468108 52.34856829 19.96147146 52.39295229 22.56835938 52.4296875 C23.80779297 52.460625 25.04722656 52.4915625 26.32421875 52.5234375 C27.45947998 52.54325684 28.59474121 52.56307617 29.7644043 52.58349609 C33.40169462 53.05170837 35.8216629 54.20956954 39 56 C39.94875 56.45375 40.8975 56.9075 41.875 57.375 C44 59 44 59 44.625 61.5 C44 64 44 64 41.75 65.75 C37.1044458 67.86161554 33.36534058 68.11365341 28.25 68.0625 C27.07953125 68.05347656 25.9090625 68.04445313 24.703125 68.03515625 C23.36507813 68.01775391 23.36507813 68.01775391 22 68 C21.8453125 68.928125 21.8453125 68.928125 21.6875 69.875 C21 72 21 72 18 74 C15.58918762 74.35440063 15.58918762 74.35440063 12.70239258 74.50244141 C11.08105156 74.5923082 11.08105156 74.5923082 9.42695618 74.68399048 C8.26125595 74.73928925 7.09555573 74.79458801 5.89453125 74.8515625 C4.10301888 74.94719986 4.10301888 74.94719986 2.27531433 75.04476929 C-1.54523263 75.24674712 -5.36629047 75.43601405 -9.1875 75.625 C-11.77543422 75.75958099 -14.36332566 75.89498723 -16.95117188 76.03125 C-23.30031567 76.36374964 -29.64992518 76.68581142 -36 77 C-37.41427096 80.28581026 -38.82644129 83.57251954 -40.23828125 86.859375 C-40.63245239 87.77509277 -41.02662354 88.69081055 -41.43273926 89.63427734 C-46.96121633 102.51231014 -52.21120341 115.47247638 -56.78637695 128.72119141 C-58.52737821 133.74085373 -60.41797452 138.68597061 -62.375 143.625 C-65.0269218 150.34032679 -67.4676124 157.10915458 -69.8125 163.9375 C-73.96846733 176.03586894 -78.40086685 188.0252081 -82.88085938 200.00683594 C-83.86598791 202.64158197 -84.84785297 205.27750692 -85.828125 207.9140625 C-86.8012797 210.5295271 -87.78386636 213.14062806 -88.7734375 215.75 C-89.54897989 217.80494036 -90.30661071 219.86680923 -91.0390625 221.9375 C-93.15319157 227.71268186 -95.73830516 231.54459176 -100 236 C-103.32406103 234.42875266 -105.59694427 232.83217282 -108 230 C-108 229.01 -108 228.02 -108 227 C-108.66 227 -109.32 227 -110 227 C-113.34453926 220.12431628 -114.46139097 215.55052001 -113 208 C-114.98 207.01 -116.96 206.02 -119 205 C-118.09117298 197.75554535 -116.05840459 191.06799499 -113.875 184.125 C-113.66290894 183.44591583 -113.45081787 182.76683167 -113.2322998 182.06716919 C-109.25825247 169.39628038 -104.82391725 156.90280904 -100.25 144.4375 C-99.77672272 143.14673553 -99.77672272 143.14673553 -99.29388428 141.82989502 C-95.76999646 132.24417794 -92.12016457 122.72292528 -88.29492188 113.25366211 C-86.62586147 109.05992757 -85.09421158 104.82963636 -83.625 100.5625 C-83.36589844 99.81935547 -83.10679687 99.07621094 -82.83984375 98.31054688 C-82.22350513 96.54142677 -81.61124807 94.77088538 -81 93 C-81.61875 93.99 -82.2375 94.98 -82.875 96 C-83.57625 96.99 -84.2775 97.98 -85 99 C-85.66 99 -86.32 99 -87 99 C-85.43247063 92.63583076 -83.85735533 86.28643343 -82 80 C-91.39863694 79.86614453 -100.68964854 80.25942301 -110.0625 80.9375 C-111.35349609 81.02451172 -112.64449219 81.11152344 -113.97460938 81.20117188 C-121.05942405 81.64189395 -121.05942405 81.64189395 -128 83 C-139.98747103 84.38591739 -139.98747103 84.38591739 -144.1328125 81.53125 C-146.30988649 78.53331204 -147.05521237 76.2442503 -146.890625 72.53515625 C-146.26956377 69.94600232 -145.56903621 68.15339867 -144 66 C-140.5 64.875 -140.5 64.875 -138.375 64.5703125 C-130.67904455 62.72227057 -121.60900442 55.60900442 -116 50 C-114.48049197 49.90024288 -112.95637151 49.86919285 -111.43359375 49.8671875 C-110.48105713 49.86525391 -109.52852051 49.86332031 -108.54711914 49.86132812 C-107.00785767 49.8680957 -107.00785767 49.8680957 -105.4375 49.875 C-104.39134521 49.87693359 -103.34519043 49.87886719 -102.26733398 49.88085938 C-95.08226848 49.92055892 -87.98173741 50.24685521 -80.81640625 50.77734375 C-74.21341279 51.16257469 -67.6113653 51.07912538 -61 51 C-60.76925781 50.4423999 -60.53851562 49.8847998 -60.30078125 49.31030273 C-45.34206747 13.33622203 -45.34206747 13.33622203 -37 7 C-34.44140625 6.328125 -34.44140625 6.328125 -32 6 C-26.31990665 5.10314316 -21.50852198 3.11630626 -16.875 -0.3125 C-11.72292198 -3.45112224 -5.52881677 -1.23047351 0 0 Z M-24 9 C-27.14575273 10.95750988 -29.1117618 11.16003503 -32.75 10.625 C-33.50055664 10.51462402 -34.25111328 10.40424805 -35.02441406 10.29052734 C-36.0023291 10.14671631 -36.0023291 10.14671631 -37 10 C-42.79179161 17.55883445 -46.86274496 25.52724295 -50.75 34.1875 C-51.31811174 35.43205124 -51.88711857 36.6761943 -52.45703125 37.91992188 C-55.04036435 43.58432246 -57.58556673 49.26147021 -60 55 C-67.8644079 55.1043948 -75.65205778 55.00984721 -83.5 54.5 C-90.7680262 54.06223472 -98.03200606 53.79767141 -105.3125 53.6875 C-106.78976562 53.64302734 -106.78976562 53.64302734 -108.296875 53.59765625 C-113.83297194 53.50964369 -113.83297194 53.50964369 -118.76171875 55.765625 C-119.50035156 56.50296875 -120.23898437 57.2403125 -121 58 C-123.14734007 59.38460913 -125.31517829 60.73782422 -127.5 62.0625 C-128.6034375 62.73410156 -129.706875 63.40570313 -130.84375 64.09765625 C-131.8853125 64.72542969 -132.926875 65.35320312 -134 66 C-135.36705078 66.82757813 -135.36705078 66.82757813 -136.76171875 67.671875 C-138.80333774 68.88330686 -140.86189741 69.9705432 -143 71 C-142.67 72.65 -142.34 74.3 -142 76 C-136.81611641 76.83212014 -132.16574057 77.21421041 -127 76.125 C-110.41725675 72.716325 -92.8232211 73.88424798 -76 74 C-75.67 74 -75.34 74 -75 74 C-74.67 74.99 -74.34 75.98 -74 77 C-73.34 77 -72.68 77 -72 77 C-74.56557222 85.09498238 -77.65031391 92.97883403 -80.72341919 100.89050293 C-86.4144511 115.55665121 -92.02251262 130.25406134 -97.53018188 144.99005127 C-98.20664469 146.79860488 -98.88478617 148.60653169 -99.56478882 150.41375732 C-103.07205216 159.74102007 -106.45380767 169.09793999 -109.52734375 178.578125 C-109.79333878 179.3811908 -110.0593338 180.18425659 -110.33338928 181.01165771 C-111.82265937 185.47181158 -111.82265937 185.47181158 -111 190 C-107.80949682 185.41779365 -106.5425611 180.55780531 -105.0625 175.25 C-104.58039663 173.52430384 -104.0921339 171.80031627 -103.59765625 170.078125 C-103.28066772 168.93972168 -103.28066772 168.93972168 -102.95727539 167.77832031 C-102.14348784 165.41644774 -101.22595492 163.22946551 -100.1940918 160.95922852 C-97.6222554 155.26489632 -95.46788994 149.4306994 -93.296875 143.57421875 C-92.63464935 141.80000298 -92.63464935 141.80000298 -91.95904541 139.98994446 C-90.55337499 136.22344596 -89.15124295 132.4556469 -87.75 128.6875 C-77.25767316 100.48316993 -77.25767316 100.48316993 -72.515625 88.58203125 C-72.04307281 87.39210823 -72.04307281 87.39210823 -71.56097412 86.17814636 C-70.24197197 82.90137535 -68.87233061 79.74674555 -67.28027344 76.58862305 C-65.85222647 74.18253193 -65.85222647 74.18253193 -66 72 C-63.03 72.33 -60.06 72.66 -57 73 C-58.62901718 78.51359661 -58.62901718 78.51359661 -60.43023682 80.87521362 C-62.1828812 83.24754274 -63.19468077 85.51485146 -64.30371094 88.24658203 C-64.73234436 89.2976413 -65.16097778 90.34870056 -65.6026001 91.43161011 C-66.05858582 92.5705069 -66.51457153 93.70940369 -66.984375 94.8828125 C-67.4663031 96.07705841 -67.9482312 97.27130432 -68.44476318 98.5017395 C-73.69977207 111.57669157 -78.64430257 124.76935358 -83.5456543 137.9800415 C-84.49009435 140.52094534 -85.44034939 143.05965882 -86.39040565 145.59846687 C-92.78174405 162.68800453 -99.16661972 179.80401558 -104.125 197.375 C-105.22673179 201.14408243 -106.30418065 203.66717558 -108.875 206.625 C-111.68560536 211.08890264 -110.9672259 213.54912009 -109.90625 218.546875 C-108.95216087 221.12949557 -107.98349091 222.16421586 -106 224 C-105.67 224.99 -105.34 225.98 -105 227 C-102.22187731 225.99530303 -101.17412046 225.31684435 -99.72998047 222.68896484 C-99.36275879 221.70621582 -98.99553711 220.7234668 -98.6171875 219.7109375 C-98.18253174 218.56906982 -97.74787598 217.42720215 -97.30004883 216.25073242 C-96.82484528 214.95889049 -96.34983719 213.66697664 -95.875 212.375 C-95.35370731 210.98951941 -94.83112074 209.6045251 -94.30737305 208.2199707 C-92.83776971 204.3240118 -91.38609583 200.42156654 -89.93682861 196.51800537 C-88.33115042 192.20226794 -86.70975891 187.89244038 -85.08984375 183.58203125 C-82.52985454 176.76527855 -79.97270162 169.947472 -77.41880798 163.12843323 C-75.75000143 158.67296428 -74.08020962 154.21786488 -72.41027832 149.76281738 C-71.42417315 147.13200641 -70.43848604 144.50103917 -69.45300293 141.86999512 C-66.38059109 133.66843978 -63.30257407 125.46903001 -60.21416378 117.27348423 C-58.81692513 113.5652453 -57.42216936 109.85611762 -56.03359985 106.1446228 C-54.71849412 102.62970418 -53.39661139 99.11740669 -52.06979752 95.60689163 C-51.58093962 94.30997463 -51.09446198 93.01215736 -50.61062241 91.71335983 C-49.14363584 87.7781525 -47.60024809 83.88275916 -46 80 C-45.65670151 79.07968491 -45.31340302 78.15936981 -44.95970154 77.21116638 C-43.86046963 74.69637651 -42.94516974 72.93807078 -41 71 C-37.21744981 69.61342825 -33.57565489 69.53667432 -29.57421875 69.46484375 C-28.47149124 69.41099014 -27.36876373 69.35713654 -26.23262024 69.301651 C-22.71792844 69.13938417 -19.20445457 69.03770977 -15.6875 68.9375 C-13.30126262 68.8379723 -10.91518618 68.7345023 -8.52929688 68.62695312 C-2.68729255 68.37223422 3.15487094 68.16718136 9 68 C9 67.34 9 66.68 9 66 C7.865625 65.87625 6.73125 65.7525 5.5625 65.625 C4.386875 65.41875 3.21125 65.2125 2 65 C1.67 64.34 1.34 63.68 1 63 C13.375 62.01 13.375 62.01 26 61 C26 60.67 26 60.34 26 60 C22.7 59.67 19.4 59.34 16 59 C18.475 58.505 18.475 58.505 21 58 C21 57.67 21 57.34 21 57 C10.11 56.505 10.11 56.505 -1 56 C-1 55.67 -1 55.34 -1 55 C-1.89831543 55.01047363 -2.79663086 55.02094727 -3.72216797 55.03173828 C-7.05064447 55.0657947 -10.37893622 55.09088618 -13.70751953 55.10986328 C-15.14895547 55.11992963 -16.59037095 55.1335838 -18.03173828 55.15087891 C-20.10193934 55.17510012 -22.17187076 55.18647641 -24.2421875 55.1953125 C-26.11173096 55.21102295 -26.11173096 55.21102295 -28.01904297 55.22705078 C-31 55 -31 55 -33 53 C-31.42031618 49.95642564 -29.83576555 46.91540975 -28.25 43.875 C-27.76354004 42.94026855 -27.27708008 42.00553711 -26.77587891 41.04248047 C-24.12602296 35.97476806 -21.42868792 30.94193923 -18.6328125 25.953125 C-18.08850586 24.97746582 -17.54419922 24.00180664 -16.98339844 22.99658203 C-15.93081707 21.11733763 -14.8692937 19.24306699 -13.79785156 17.37451172 C-11.06700492 12.48653337 -9.32142609 8.61730354 -9 3 C-15.41835498 2.54154607 -19.60337685 4.40353034 -24 9 Z " fill="#090202" transform="translate(1036,420)"/>
<path d="M0 0 C0.06892275 38.05569897 0.12165821 76.11138841 0.15319599 114.16713735 C0.15694735 118.67734297 0.16083039 123.18754847 0.16479492 127.69775391 C0.16558185 128.59551625 0.16636878 129.49327859 0.16717956 130.41824585 C0.18017305 144.88489957 0.20379282 159.3515169 0.23145839 173.81814915 C0.25968239 188.70282474 0.27621182 203.5874815 0.28226548 218.47218275 C0.28634703 227.62969726 0.29915554 236.78710887 0.3237494 245.94459164 C0.33981741 252.25553964 0.34435377 258.56643578 0.34050413 264.87740266 C0.33861463 268.49856361 0.34114879 272.11954704 0.35761642 275.74067497 C0.42212323 290.69158148 0.00272652 305.48269627 -1.40800476 320.3638916 C-1.47141183 321.03587497 -1.53481891 321.70785834 -1.6001474 322.40020484 C-3.51651793 342.27017949 -7.51895514 361.47811466 -21 377 C-21.99 377.66 -22.98 378.32 -24 379 C-23.74605469 378.01644531 -23.49210937 377.03289062 -23.23046875 376.01953125 C-21.18330535 367.85682902 -19.51323892 359.70651688 -18.3125 351.375 C-18.19350342 350.56651611 -18.07450684 349.75803223 -17.9519043 348.92504883 C-16.26271749 336.63307881 -15.85174158 324.28822408 -15.84178162 311.89588928 C-15.83719958 310.54650669 -15.83219726 309.19712548 -15.82681805 307.84774584 C-15.813414 304.18752916 -15.80587101 300.5273216 -15.79939139 296.86708701 C-15.79130814 292.90206772 -15.77763831 288.93706696 -15.76467896 284.97206116 C-15.74302735 278.1182368 -15.72484214 271.26441047 -15.70907402 264.41057014 C-15.68627142 254.50131225 -15.65814359 244.59207497 -15.62875474 234.68283468 C-15.58120541 218.60212354 -15.53790733 202.52140392 -15.49731445 186.44067383 C-15.45789484 170.82836244 -15.41645333 155.21605856 -15.37231445 139.60375977 C-15.36959018 138.63991405 -15.36686591 137.67606834 -15.36405908 136.68301518 C-15.35037854 131.84723551 -15.33665848 127.01145596 -15.32291877 122.17567647 C-15.2091531 82.11713331 -15.10230017 42.05857399 -15 2 C-13.43883181 1.66048381 -11.87598662 1.32867456 -10.3125 1 C-9.44238281 0.814375 -8.57226562 0.62875 -7.67578125 0.4375 C-5.06287036 0.01027953 -2.64186962 -0.07616201 0 0 Z " fill="#F80D01" transform="translate(131,193)"/>
<path d="M0 0 C0.9075 0.00064453 1.815 0.00128906 2.75 0.00195312 C7.40964237 0.03216694 11.87345509 0.31449516 16.49462891 0.96704102 C21.02063539 1.43540955 25.58032848 1.28876688 30.125 1.25 C31.64480469 1.24323242 31.64480469 1.24323242 33.1953125 1.23632812 C35.67193827 1.22464593 38.14843657 1.20826582 40.625 1.1875 C40.625 2.8375 40.625 4.4875 40.625 6.1875 C39.06533782 6.696283 37.50210759 7.19413469 35.9375 7.6875 C34.63232422 8.10515625 34.63232422 8.10515625 33.30078125 8.53125 C30.63108323 9.18600805 28.36103316 9.30581495 25.625 9.1875 C26.285 10.239375 26.945 11.29125 27.625 12.375 C30.754337 18.66720261 30.81371457 25.86170437 28.96484375 32.58984375 C26.03461519 39.19871423 20.7363058 43.39292951 14.375 46.5625 C6.34516206 49.54111067 -5.29562746 49.87847281 -13.44921875 47.1640625 C-14.08472656 46.84179688 -14.72023438 46.51953125 -15.375 46.1875 C-15.705 48.8275 -16.035 51.4675 -16.375 54.1875 C-12.71150446 55.40866518 -9.30468503 55.36112899 -5.48828125 55.3984375 C-3.89387023 55.42652236 -2.29946933 55.45518692 -0.70507812 55.484375 C1.79841653 55.52548409 4.3017255 55.56238604 6.80541992 55.58886719 C9.22874691 55.6166967 11.65122549 55.66257985 14.07421875 55.7109375 C14.81097336 55.71419037 15.54772797 55.71744324 16.30680847 55.72079468 C23.58539401 55.8905164 30.41127992 57.82481649 35.625 63.1875 C39.08194591 69.38616163 39.523754 74.44269169 37.875 81.3125 C33.71728902 90.87523525 27.05029733 96.10096698 17.640625 100.0859375 C3.81110428 105.13765362 -10.33511088 106.04258424 -24.375 101.1875 C-28.6813169 99.05578125 -32.37580524 97.11164595 -34.63671875 92.7578125 C-35.86161925 88.49334411 -35.11590611 85.22146527 -33.375 81.1875 C-30.949909 77.92940011 -28.26808841 75.03349162 -25.375 72.1875 C-25.81972656 71.76339844 -26.26445313 71.33929688 -26.72265625 70.90234375 C-31.3412578 66.11541048 -31.3412578 66.11541048 -31.5 61.75 C-29.31112122 54.81855053 -26.22807332 49.57980369 -21.375 44.1875 C-21.92929688 43.61902344 -22.48359375 43.05054688 -23.0546875 42.46484375 C-28.94905043 36.18241778 -31.95120054 31.22038517 -31.69140625 22.30078125 C-30.46682889 14.12181392 -25.89920047 8.8119046 -19.4375 4 C-12.95567137 0.16381571 -7.34409514 -0.09826606 0 0 Z M-8.375 11.1875 C-9.73733092 15.27449276 -9.63850956 19.09323539 -9.6875 23.375 C-9.71650391 24.20064453 -9.74550781 25.02628906 -9.77539062 25.87695312 C-9.83393592 31.59187509 -9.02864888 36.59732156 -5.375 41.1875 C-1.78068969 42.34281403 0.34319243 42.60322137 3.9375 41.4375 C6.30621258 39.68289809 7.45055167 37.81596128 8.234375 34.9921875 C8.7307385 31.42829757 8.84814845 27.90389487 8.875 24.3125 C8.895625 23.63058594 8.91625 22.94867188 8.9375 22.24609375 C8.98139011 16.48551703 7.89611552 11.53431937 3.75 7.25 C-1.91729962 4.41635019 -4.55086301 6.61978082 -8.375 11.1875 Z M-18.375 75.1875 C-19.74262544 79.41551851 -20.18804571 83.80956156 -19.375 88.1875 C-15.10901775 93.07777234 -10.55444176 94.86119807 -4.0234375 95.37109375 C5.93007136 95.63302819 14.65971301 93.89815689 22.0625 86.875 C24.0901827 83.38738575 24.13982214 81.15898512 23.625 77.1875 C22.24561927 75.1184289 21.31895884 74.42464569 18.98681641 73.62768555 C15.69120053 73.01346233 12.42616134 73.02488022 9.0859375 73.01953125 C8.00283798 73.01453865 8.00283798 73.01453865 6.89785767 73.00944519 C5.37657303 73.00439584 3.85527738 73.00203625 2.33398438 73.00219727 C0.00111915 73.00000105 -2.33128026 72.98179844 -4.6640625 72.96289062 C-6.14322755 72.95995828 -7.62239484 72.95797242 -9.1015625 72.95703125 C-9.80052643 72.94984573 -10.49949036 72.94266022 -11.21963501 72.93525696 C-15.24501645 72.84189982 -15.24501645 72.84189982 -18.375 75.1875 Z " fill="#010101" transform="translate(116.375,38.8125)"/>
<path d="M0 0 C0.33 1.32 0.66 2.64 1 4 C1.51949219 3.72285156 2.03898438 3.44570313 2.57421875 3.16015625 C10.50072153 -0.95693669 17.23554402 -2.15840272 26.0625 0.1875 C32.90087478 2.44623591 36.53915834 5.7364042 39.8125 12.125 C43.69790315 20.3987711 44.90541977 30.74790348 41.75 39.5625 C37.31530442 48.27350918 31.93786621 54.72771275 22.6875 58.375 C14.90317781 60.89409315 8.05249461 61.34208243 0 60 C0.33 66.93 0.66 73.86 1 81 C3.97 81.99 6.94 82.98 10 84 C10.33 85.32 10.66 86.64 11 88 C-1.87 88 -14.74 88 -28 88 C-27.67 86.35 -27.34 84.7 -27 83 C-24.36 82.67 -21.72 82.34 -19 82 C-19 57.91 -19 33.82 -19 9 C-21.64 8.67 -24.28 8.34 -27 8 C-27.5625 6.0625 -27.5625 6.0625 -28 4 C-25.80681917 1.80681917 -21.29008478 1.97826879 -18.25 1.5 C-16.63009317 1.24030065 -15.01029819 0.97990252 -13.390625 0.71875 C-12.62645264 0.59685303 -11.86228027 0.47495605 -11.07495117 0.34936523 C-9.39798977 0.06701063 -7.73009378 -0.26886164 -6.06640625 -0.62109375 C-3.73552796 -1.04849487 -2.22991666 -0.74330555 0 0 Z M0 10 C-0.02464574 15.96313166 -0.042834 21.92623395 -0.05493164 27.8894043 C-0.05997278 29.91968298 -0.06680557 31.94995802 -0.07543945 33.98022461 C-0.08751467 36.89177347 -0.09323034 39.8032745 -0.09765625 42.71484375 C-0.10281754 43.6283812 -0.10797882 44.54191864 -0.11329651 45.48313904 C-0.11349168 47.65575427 -0.06211805 49.82827296 0 52 C1.70792999 53.70792999 3.85543481 53.25270346 6.1875 53.3125 C11.30561874 53.24620313 14.17689081 52.63661606 18 49 C23.94794748 40.90311666 23.90851377 31.2106093 22.69140625 21.55078125 C21.43587021 15.71753859 18.90194848 12.26796565 14 9 C11.35767058 8.72024023 11.35767058 8.72024023 8.5 8.8125 C7.5409375 8.81894531 6.581875 8.82539062 5.59375 8.83203125 C2.88502233 8.89707069 2.88502233 8.89707069 0 10 Z " fill="#010101" transform="translate(695,507)"/>
<path d="M0 0 C5.32721979 6.88610668 6.148151 13.32162567 6.0625 21.81640625 C6.05871338 22.66927719 6.05492676 23.52214813 6.05102539 24.40086365 C6.03882436 27.12146076 6.02019317 29.84195117 6 32.5625 C5.97344482 36.14713257 5.95343338 39.73171251 5.9375 43.31640625 C5.92920166 44.14145157 5.92090332 44.96649689 5.91235352 45.81654358 C5.89805256 49.14009926 5.94123417 51.82370251 7 55 C8.87387216 55.80212628 8.87387216 55.80212628 11.0625 56.1875 C12.16271484 56.42533203 12.16271484 56.42533203 13.28515625 56.66796875 C13.85105469 56.77753906 14.41695313 56.88710937 15 57 C15.33 58.32 15.66 59.64 16 61 C-1.3217641 67.00034966 -1.3217641 67.00034966 -9.375 63.125 C-12.84073107 61.31853786 -12.84073107 61.31853786 -14 59 C-16.88141396 60.13510247 -19.72566185 61.31827274 -22.5625 62.5625 C-30.18666535 65.75078733 -36.69534844 65.58122177 -44.5625 63.05078125 C-49.0064281 61.13504943 -52.5258019 58.27066084 -55.1640625 54.20703125 C-56.98735189 49.39320647 -56.50344341 44.04702021 -56 39 C-54.375 35.5 -54.375 35.5 -52 33 C-51.195625 32.13375 -50.39125 31.2675 -49.5625 30.375 C-39.9090903 22.94930023 -26.59752374 23.26032601 -15 23 C-15.99591904 14.11450459 -15.99591904 14.11450459 -21 7 C-29.54955824 4.15014725 -39.38201852 6.28862779 -48 8 C-48.66 5.69 -49.32 3.38 -50 1 C-34.85193456 -5.27867501 -14.45782882 -11.25380449 0 0 Z M-32 35 C-34.09290216 38.57818757 -35.02054901 40.97254952 -34.9375 45.125 C-33.84197571 48.48460783 -32.4556542 50.47212067 -30 53 C-26.46029282 54.17990239 -23.71816101 54.19569268 -20 54 C-18.68 53.34 -17.36 52.68 -16 52 C-16 45.4 -16 38.8 -16 32 C-25.01975068 31.44972577 -25.01975068 31.44972577 -32 35 Z " fill="#000000" transform="translate(453,44)"/>
<path d="M0 0 C7.84910994 9.15729493 8.25 14.09820725 8.25 26.625 C-6.6 26.625 -21.45 26.625 -36.75 26.625 C-34.99231127 38.69171415 -34.99231127 38.69171415 -27.75 47.625 C-16.29672972 52.52105447 -4.88071385 52.07036165 7.25 50.625 C7.745 53.595 7.745 53.595 8.25 56.625 C-7.84375897 63.98375192 -21.63298996 65.41939495 -38.75 60.625 C-47.62740457 57.24908559 -53.83953029 51.59146291 -58 43.0625 C-61.07610108 33.06517149 -60.66114458 22.32168675 -56.75 12.625 C-51.42206219 3.18077378 -43.12186171 -3.39999891 -32.75 -6.375 C-21.24624275 -8.99323866 -9.0520186 -7.81765243 0 0 Z M-31.359375 3.7890625 C-34.36370055 7.75544735 -36.75 13.60356247 -36.75 18.625 C-29.49 18.625 -22.23 18.625 -14.75 18.625 C-14.31198818 9.59679535 -14.31198818 9.59679535 -17.75 2.625 C-22.77074856 -0.72216571 -26.81595096 -0.34784465 -31.359375 3.7890625 Z " fill="#010101" transform="translate(267.75,45.375)"/>
<path d="M0 0 C0 33 0 66 0 100 C2.31 100.33 4.62 100.66 7 101 C7.99 101.33 8.98 101.66 10 102 C10 103.65 10 105.3 10 107 C-3.86 107 -17.72 107 -32 107 C-32.495 104.525 -32.495 104.525 -33 102 C-29.7 101.01 -26.4 100.02 -23 99 C-23 69.96 -23 40.92 -23 11 C-25.64 10.67 -28.28 10.34 -31 10 C-31.66 9.67 -32.32 9.34 -33 9 C-33 7.68 -33 6.36 -33 5 C-28.65590674 4.12062889 -24.31032556 3.24935712 -19.96240234 2.38916016 C-18.24121653 2.04783518 -16.52092292 1.70201744 -14.80078125 1.35546875 C-13.87652344 1.17628906 -12.95226562 0.99710937 -12 0.8125 C-11.195625 0.65394531 -10.39125 0.49539062 -9.5625 0.33203125 C-6.39952054 -0.07780603 -3.1894209 0 0 0 Z " fill="#010101" transform="translate(191,0)"/>
<path d="M0 0 C0.77943466 0.00222061 1.55886932 0.00444122 2.36192322 0.00672913 C3.68317955 0.00684242 3.68317955 0.00684242 5.03112793 0.00695801 C5.98841293 0.01211929 6.94569794 0.01728058 7.93199158 0.02259827 C9.39480812 0.02472069 9.39480812 0.02472069 10.88717651 0.02688599 C14.01542675 0.03250319 17.14360656 0.04505859 20.27183533 0.05775452 C22.38706867 0.0627673 24.50230313 0.06733059 26.61753845 0.07142639 C31.81482829 0.0824782 37.01207678 0.09923305 42.20933533 0.12025452 C42.70433533 2.59525452 42.70433533 2.59525452 43.20933533 5.12025452 C37.76433533 6.60525452 37.76433533 6.60525452 32.20933533 8.12025452 C32.20933533 35.51025452 32.20933533 62.90025452 32.20933533 91.12025452 C37.68523511 93.18832842 37.68523511 93.18832842 43.20933533 95.12025452 C43.20933533 96.77025452 43.20933533 98.42025452 43.20933533 100.12025452 C28.35933533 100.12025452 13.50933533 100.12025452 -1.79066467 100.12025452 C-1.79066467 98.47025452 -1.79066467 96.82025452 -1.79066467 95.12025452 C-0.33359741 94.61657694 1.12503629 94.11742895 2.58433533 93.62025452 C3.3964447 93.34181702 4.20855408 93.06337952 5.04527283 92.77650452 C7.20933533 92.12025452 7.20933533 92.12025452 9.20933533 92.12025452 C9.20933533 64.40025452 9.20933533 36.68025452 9.20933533 8.12025452 C5.57933533 7.13025452 1.94933533 6.14025452 -1.79066467 5.12025452 C-2.12066467 3.80025452 -2.45066467 2.48025452 -2.79066467 1.12025452 C-1.79066467 0.12025452 -1.79066467 0.12025452 0 0 Z " fill="#010101" transform="translate(31.790664672851563,6.8797454833984375)"/>
<path d="M0 0 C-0.01047363 1.17506104 -0.02094727 2.35012207 -0.03173828 3.56079102 C-0.06808216 7.94227015 -0.09095268 12.32373608 -0.10986328 16.70532227 C-0.11988815 18.59759771 -0.13351155 20.48985778 -0.15087891 22.38208008 C-0.17528222 25.1102275 -0.18651845 27.83816915 -0.1953125 30.56640625 C-0.20563507 31.40522842 -0.21595764 32.2440506 -0.22659302 33.10829163 C-0.22752452 38.04322879 0.06031528 42.37877218 2 47 C7.75246196 51.11326392 7.75246196 51.11326392 19 49 C19 35.8 19 22.6 19 9 C16.69 8.67 14.38 8.34 12 8 C11.4375 6.0625 11.4375 6.0625 11 4 C13.17127655 1.82872345 17.56094385 1.98005886 20.5625 1.5 C21.34947266 1.36980469 22.13644531 1.23960937 22.94726562 1.10546875 C27.9543657 0.28815151 32.96457625 -0.38188806 38 -1 C38.0154612 -0.04826401 38.0154612 -0.04826401 38.03123474 0.92269897 C38.13916135 7.50846962 38.25377035 14.09409959 38.37231445 20.6796875 C38.41570779 23.13961859 38.45737956 25.59958065 38.49731445 28.05957031 C38.55491057 31.58928784 38.61863557 35.11884876 38.68359375 38.6484375 C38.70030624 39.75367767 38.71701874 40.85891785 38.73423767 41.99765015 C38.7641555 43.52901108 38.7641555 43.52901108 38.79467773 45.09130859 C38.81799416 46.44366104 38.81799416 46.44366104 38.84178162 47.82333374 C38.86435092 50.04636301 38.86435092 50.04636301 40 52 C42.32156597 52.40729228 44.6568787 52.74438677 47 53 C46.67 54.65 46.34 56.3 46 58 C31.21573443 62.25019072 31.21573443 62.25019072 24 59 C21.4375 56.875 21.4375 56.875 20 55 C18.2984375 55.928125 18.2984375 55.928125 16.5625 56.875 C9.20658775 60.51410448 2.07102587 61.96051515 -6 60 C-11.82890898 58.00535562 -15.03916219 55.56637508 -18 50 C-19.26625424 46.20123729 -19.23298547 42.57578074 -19.31640625 38.61328125 C-19.33718735 37.79627243 -19.35796844 36.97926361 -19.37937927 36.13749695 C-19.44473079 33.52924966 -19.50369273 30.92090225 -19.5625 28.3125 C-19.60569892 26.54360946 -19.64931365 24.77472903 -19.69335938 23.00585938 C-19.80039743 18.67067537 -19.90170544 14.33539071 -20 10 C-22.64 9.34 -25.28 8.68 -28 8 C-28 6.35 -28 4.7 -28 3 C-27.45061768 2.91435791 -26.90123535 2.82871582 -26.33520508 2.74047852 C-23.82746392 2.34891661 -21.31998123 1.9557228 -18.8125 1.5625 C-17.94818359 1.42779297 -17.08386719 1.29308594 -16.19335938 1.15429688 C-15.35224609 1.02216797 -14.51113281 0.89003906 -13.64453125 0.75390625 C-12.83064941 0.6264502 -12.01676758 0.49899414 -11.17822266 0.36767578 C-9.48707521 0.08221646 -7.80794513 -0.27483939 -6.13671875 -0.66015625 C-3.76439176 -1.03747334 -2.28775873 -0.63889665 0 0 Z " fill="#010101" transform="translate(771,507)"/>
<path d="M0 0 C-1.32 6.27 -2.64 12.54 -4 19 C-5.65 19 -7.3 19 -9 19 C-10.86540627 14.29593201 -12.36843005 10.05255964 -13 5 C-20.93285519 4.63198094 -27.5345605 5.22523488 -35 8 C-35 10.64 -35 13.28 -35 16 C-30.29874777 18.46961169 -25.76285225 20.51831634 -20.70751953 22.12890625 C-11.85204692 24.9510464 -4.66851747 28.10864338 1.0625 35.75 C2.76860559 41.66449936 2.82048585 47.44201472 0.9375 53.3125 C-4.94159468 61.46737327 -12.73735042 64.92476739 -22.48046875 66.6484375 C-33.11623745 68.13249825 -44.78648669 66.52810798 -54 61 C-52.68 54.73 -51.36 48.46 -50 42 C-48.35 42 -46.7 42 -45 42 C-44.34510627 43.37070781 -43.70155037 44.74683444 -43.0625 46.125 C-42.70285156 46.89070313 -42.34320313 47.65640625 -41.97265625 48.4453125 C-40.89174643 51.28432866 -40.4134544 53.99701539 -40 57 C-37.27022936 57.08126109 -34.5428983 57.14061663 -31.8125 57.1875 C-31.04357422 57.21263672 -30.27464844 57.23777344 -29.48242188 57.26367188 C-24.87299809 57.32302068 -21.65690565 57.15200743 -18 54 C-17.33333333 50.5 -17.33333333 50.5 -18 47 C-20.09978281 44.31828557 -22.30725974 43.2787801 -25.45703125 42.09765625 C-26.75543945 41.59782227 -26.75543945 41.59782227 -28.08007812 41.08789062 C-28.98177734 40.74951172 -29.88347656 40.41113281 -30.8125 40.0625 C-39.67330293 36.73248065 -46.24061125 33.73403632 -52 26 C-53.80761663 20.57715012 -54.06259646 14.90744477 -52.08203125 9.48828125 C-48.14752428 2.69231467 -42.27129394 -0.47046009 -35 -3 C-23.35631125 -5.68311089 -11.09809298 -3.69936433 0 0 Z " fill="#010101" transform="translate(339,42)"/>
<path d="M0 0 C5.28139679 1.48539285 9.28054101 5.08672304 13 9 C13 9.66 13 10.32 13 11 C13.88993652 11.41100952 13.88993652 11.41100952 14.79785156 11.83032227 C18.25491788 13.66655339 20.88986358 16.29423106 23.75 18.9375 C24.35199219 19.47568359 24.95398438 20.01386719 25.57421875 20.56835938 C27.11101477 21.98144506 28.56268812 23.48583763 30 25 C30 25.99 30 26.98 30 28 C17.49257275 33.0285709 4.83367695 37.60933902 -7.85440063 42.15621948 C-19.35169227 46.27913674 -30.78379081 50.52911107 -42.14453125 55.0168457 C-43.11648438 55.39800537 -44.0884375 55.77916504 -45.08984375 56.171875 C-45.92378662 56.5028418 -46.75772949 56.83380859 -47.61694336 57.17480469 C-50.06248925 58.02163853 -52.45372157 58.55214072 -55 59 C-56.0055761 57.54550599 -57.00430435 56.08627557 -58 54.625 C-58.8353125 53.40683594 -58.8353125 53.40683594 -59.6875 52.1640625 C-61 50 -61 50 -61 48 C-59.17971494 46.45905042 -57.35494549 45.03669725 -55.4375 43.625 C-54.23720573 42.72278324 -53.03803068 41.81907603 -51.83984375 40.9140625 C-51.20933105 40.4387207 -50.57881836 39.96337891 -49.92919922 39.47363281 C-46.74116339 37.03842853 -43.62252772 34.51828517 -40.5 32 C-35.87354441 28.27873336 -31.21897498 24.60323706 -26.5 21 C-19.78777562 15.86614521 -13.19345486 10.59065635 -6.609375 5.29394531 C-4.40949783 3.52523339 -2.20499478 1.76232537 0 0 Z " fill="#000000" transform="translate(771,96)"/>
<path d="M0 0 C4.26199926 3.3551909 7.48423105 7.47848911 8.29205322 12.99404907 C8.42422717 15.2875814 8.46718747 17.56597777 8.4765625 19.86328125 C8.49214203 20.6958696 8.50772156 21.52845795 8.52377319 22.38627625 C8.57106453 25.0283423 8.59899779 27.67014609 8.625 30.3125 C8.66147485 32.97252432 8.70201203 35.63239929 8.74765015 38.2922821 C8.77491365 39.94373299 8.79624889 41.59529411 8.81118774 43.24690247 C8.51365961 46.92573977 8.51365961 46.92573977 10 50 C12.32817964 50.36760731 14.6618385 50.70241581 17 51 C16.67 52.65 16.34 54.3 16 56 C1.21573443 60.25019072 1.21573443 60.25019072 -6 57 C-8.5625 54.875 -8.5625 54.875 -10 53 C-10.763125 53.61875 -11.52625 54.2375 -12.3125 54.875 C-18.02617623 58.64818242 -25.14631203 59.6361707 -31.8125 58.375 C-36.49629074 57.03677408 -40.37548731 55.32290133 -43.25390625 51.20703125 C-45.72443386 46.75663831 -46.66729471 43.14770205 -46 38 C-44.04420861 32.85318056 -41.2560837 28.70907561 -36.2734375 26.09375 C-28.6125542 23.13588 -20.10686656 22.79114082 -12 22 C-11.89132698 20.41820385 -11.81410173 18.83422847 -11.75 17.25 C-11.70359375 16.36828125 -11.6571875 15.4865625 -11.609375 14.578125 C-11.82637266 11.90118398 -11.82637266 11.90118398 -13.55859375 9.69140625 C-16.92488856 7.3592372 -19.25187325 7.56915007 -23.3125 7.6875 C-25.22482422 7.72423828 -25.22482422 7.72423828 -27.17578125 7.76171875 C-30.84977837 7.99063992 -34.36891444 8.42222054 -38 9 C-38.66 7.02 -39.32 5.04 -40 3 C-26.69874277 -2.12160559 -13.74698987 -6.11520902 0 0 Z M-24.5625 32.6875 C-26.5431104 35.87369934 -26.93435814 38.25841402 -27 42 C-25.2240181 46.20627292 -24.21465121 46.8926744 -20 49 C-17.03 48.67 -14.06 48.34 -11 48 C-10.67 41.73 -10.34 35.46 -10 29 C-15.05790654 29 -20.32716259 29.89837537 -24.5625 32.6875 Z " fill="#010101" transform="translate(447,509)"/>
<path d="M0 0 C3.82822142 3.02696577 5.70315853 5.37071306 6.6875 10.125 C6.82693862 12.93569449 6.91995612 15.72686271 6.96875 18.5390625 C6.99636414 19.75533829 6.99636414 19.75533829 7.02453613 20.9961853 C7.10307799 24.45923935 7.17109677 27.92248005 7.23974609 31.38574219 C7.29141538 33.91611498 7.34866785 36.44631849 7.40625 38.9765625 C7.41982544 39.76302155 7.43340088 40.54948059 7.4473877 41.35977173 C7.45441729 45.37321228 7.45441729 45.37321228 8.6875 49.125 C11.00906597 49.53229228 13.3443787 49.86938677 15.6875 50.125 C15.3575 51.775 15.0275 53.425 14.6875 55.125 C7.33287282 57.43965424 1.02820538 59.25603556 -6.3125 56.125 C-9.375 54 -9.375 54 -11.3125 52.125 C-12.075625 52.74375 -12.83875 53.3625 -13.625 54 C-18.8075266 57.40217629 -24.91553766 58.5928743 -31.03515625 57.75 C-37.83363279 55.94527621 -42.36415242 53.04752136 -46.3125 47.125 C-46.98614468 41.69667721 -47.01256329 36.7293117 -44.8125 31.6875 C-35.45602407 22.09711217 -24.07292911 21.88502556 -11.3125 21.125 C-11.34597525 19.72816918 -11.41581784 18.33219363 -11.5 16.9375 C-11.53480469 16.16019531 -11.56960938 15.38289062 -11.60546875 14.58203125 C-12.65473882 10.93567282 -14.31843463 9.41174254 -17.3125 7.125 C-20.87812361 6.48430045 -20.87812361 6.48430045 -24.6875 6.75 C-25.95335937 6.78351562 -27.21921875 6.81703125 -28.5234375 6.8515625 C-32.34422681 7.07873866 -32.34422681 7.07873866 -36.2265625 7.7109375 C-37.75410156 7.91589844 -37.75410156 7.91589844 -39.3125 8.125 C-40.3125 7.125 -40.3125 7.125 -40.375 4.5625 C-40.354375 3.758125 -40.33375 2.95375 -40.3125 2.125 C-27.8621617 -3.95539778 -12.58221273 -7.12200721 0 0 Z M-26 31.6875 C-28.03309826 35.46325391 -27.91288152 38.93772375 -27.3125 43.125 C-26.58564412 45.76124641 -26.58564412 45.76124641 -24.3125 47.125 C-19.14188571 48.43723923 -16.16787652 48.55268826 -11.3125 46.125 C-11.3125 40.185 -11.3125 34.245 -11.3125 28.125 C-16.28632374 28.125 -21.72316591 29.20096855 -26 31.6875 Z " fill="#010101" transform="translate(1035.3125,509.875)"/>
<path d="M0 0 C3.90989869 3.5173695 5.35998415 7.91198369 6.984375 12.78515625 C6.984375 16.41515625 6.984375 20.04515625 6.984375 23.78515625 C-5.885625 23.78515625 -18.755625 23.78515625 -32.015625 23.78515625 C-29.80165253 35.6606891 -29.80165253 35.6606891 -22.140625 42.53515625 C-13.57237677 45.79661848 -3.06409329 44.9727973 5.984375 44.78515625 C6.479375 47.26015625 6.479375 47.26015625 6.984375 49.78515625 C-6.53369859 55.94604819 -20.33956812 57.5764673 -34.62890625 52.859375 C-42.49752446 49.31785289 -48.06898513 43.65175592 -51.265625 35.66015625 C-53.28841022 25.20909926 -52.46205183 15.53543117 -46.5078125 6.49609375 C-34.98237098 -7.81689641 -14.88784926 -10.44716319 0 0 Z M-28.703125 5.41015625 C-30.66074448 8.68855773 -30.66074448 8.68855773 -32.015625 16.78515625 C-25.745625 16.78515625 -19.475625 16.78515625 -13.015625 16.78515625 C-12.51717738 8.62712457 -12.51717738 8.62712457 -16.015625 2.78515625 C-21.22898346 -0.69041605 -24.48840915 1.35154099 -28.703125 5.41015625 Z " fill="#010101" transform="translate(263.015625,512.21484375)"/>
<path d="M0 0 C0 0.66 0 1.32 0 2 C0.66 2 1.32 2 2 2 C6.93523934 10.11926471 7 13.83874543 7 24 C-5.87 24 -18.74 24 -32 24 C-30.085709 34.78401604 -30.085709 34.78401604 -24 42 C-14.54206746 46.08695429 -4.07382219 45.30221467 6 45 C6.495 47.475 6.495 47.475 7 50 C-6.36287698 56.09016075 -19.49923264 57.65695089 -33.58203125 53 C-41.15975289 49.86607958 -46.65625251 45.5828918 -50 38 C-52.90243752 30.32823048 -52.68793623 21.4674456 -50.28125 13.671875 C-49.34299167 11.61741278 -48.28961077 9.853569 -47 8 C-46.52691406 7.31164062 -46.05382812 6.62328125 -45.56640625 5.9140625 C-34.35245629 -8.55381538 -14.57490474 -9.10931546 0 0 Z M-27 4 C-30.28539701 8.25884798 -30.59283294 11.37133175 -32 17 C-25.73 17 -19.46 17 -13 17 C-12.56238942 9.35233732 -12.56238942 9.35233732 -15 3 C-19.58227069 -0.10411886 -22.70747048 0.8879161 -27 4 Z " fill="#010101" transform="translate(876,512)"/>
<path d="M0 0 C3.62424386 3.51286048 5.43292198 6.50699843 7.125 11.3125 C7.125 15.6025 7.125 19.8925 7.125 24.3125 C-5.415 24.6425 -17.955 24.9725 -30.875 25.3125 C-29.04094361 35.95600952 -29.04094361 35.95600952 -22.875 42.3125 C-13.97378735 46.5776644 -2.55387613 45.49027528 7.125 45.3125 C7.125 46.9625 7.125 48.6125 7.125 50.3125 C-4.54165535 56.08973799 -18.29000944 58.04138609 -30.875 54.3125 C-38.62932271 51.59961742 -44.28598257 47.16228337 -48.875 40.3125 C-52.19569475 32.59324566 -52.43622348 22.10644273 -49.82421875 14.0859375 C-48.63193141 11.70136282 -47.37974925 9.51034587 -45.875 7.3125 C-45.215 6.3225 -44.555 5.3325 -43.875 4.3125 C-43.215 4.3125 -42.555 4.3125 -41.875 4.3125 C-41.875 3.6525 -41.875 2.9925 -41.875 2.3125 C-30.12805964 -6.78190544 -12.36091032 -9.69327796 0 0 Z M-26.875 4.3125 C-30.42179179 8.74598974 -30.09632072 11.08306573 -30.875 17.3125 C-24.605 17.3125 -18.335 17.3125 -11.875 17.3125 C-12.10061392 9.17907912 -12.10061392 9.17907912 -15.875 2.3125 C-20.54748017 0.6872895 -23.06150257 1.22047505 -26.875 4.3125 Z " fill="#010101" transform="translate(597.875,511.6875)"/>
<path d="M0 0 C0.33 28.38 0.66 56.76 1 86 C3.31 86.66 5.62 87.32 8 88 C8.33 89.65 8.66 91.3 9 93 C-3.21 93 -15.42 93 -28 93 C-28 91.35 -28 89.7 -28 88 C-24.04 87.01 -24.04 87.01 -20 86 C-19.505 48.38 -19.505 48.38 -19 10 C-21.64 9.67 -24.28 9.34 -27 9 C-27.33 7.35 -27.66 5.7 -28 4 C-24.45995797 3.3245086 -20.91773831 2.66119202 -17.375 2 C-16.37597656 1.80921875 -15.37695312 1.6184375 -14.34765625 1.421875 C-13.37441406 1.24140625 -12.40117187 1.0609375 -11.3984375 0.875 C-10.50817871 0.70742188 -9.61791992 0.53984375 -8.70068359 0.3671875 C-6 0 -6 0 0 0 Z " fill="#010101" transform="translate(388,473)"/>
<path d="M0 0 C-1.67005076 15.67005076 -1.67005076 15.67005076 -3 17 C-4.65 17 -6.3 17 -8 17 C-8.99 13.04 -9.98 9.08 -11 5 C-13.25056722 5.11433363 -15.50046674 5.24186436 -17.75 5.375 C-19.62945312 5.47941406 -19.62945312 5.47941406 -21.546875 5.5859375 C-24.60998121 5.95323304 -26.41974266 6.39711286 -29 8 C-29 10.31 -29 12.62 -29 15 C-28.37544922 15.235979 -27.75089844 15.47195801 -27.10742188 15.71508789 C-24.23123299 16.81335136 -21.3658923 17.9376555 -18.5 19.0625 C-17.02660156 19.6184082 -17.02660156 19.6184082 -15.5234375 20.18554688 C-8.13833332 23.11497153 -1.34954564 26.67683603 2.5625 33.875 C3.26574649 38.89818918 3.43755146 43.46314449 0.87109375 47.9921875 C-4.56676549 54.89693519 -11.65935098 57.43918594 -20.14453125 58.75 C-28.32153575 59.46590737 -37.43351427 58.26671155 -45 55 C-46.29132785 51.12601645 -45.41113572 48.18011214 -44.5625 44.3125 C-44.41490234 43.61060547 -44.26730469 42.90871094 -44.11523438 42.18554688 C-43.7504068 40.45555806 -43.37611311 38.72757037 -43 37 C-40.525 36.505 -40.525 36.505 -38 36 C-37.32968281 37.9570868 -36.66385317 39.91571113 -36 41.875 C-35.443125 43.51082031 -35.443125 43.51082031 -34.875 45.1796875 C-34 48 -34 48 -34 50 C-31.75026553 50.054138 -29.50015617 50.09285491 -27.25 50.125 C-25.99703125 50.14820313 -24.7440625 50.17140625 -23.453125 50.1953125 C-20.26117942 50.01477259 -18.5554104 49.86073573 -16 48 C-14.82889551 45.1403994 -14.82889551 45.1403994 -15 42 C-18.68728109 36.94742835 -24.61133514 35.69386832 -30.26953125 33.73242188 C-36.10975152 31.60914712 -40.69896204 29.31189857 -44.3515625 24.0546875 C-46.16746784 18.3006742 -45.8907289 11.91849302 -43.375 6.5 C-31.99296861 -5.48108567 -14.70163465 -4.90054488 0 0 Z " fill="#010101" transform="translate(324,509)"/>
<path d="M0 0 C-0.28438952 1.89693861 -0.57783792 3.79252027 -0.875 5.6875 C-1.03742187 6.74324219 -1.19984375 7.79898438 -1.3671875 8.88671875 C-1.95893069 11.79794914 -2.8031806 14.28955607 -4 17 C-5.32 17 -6.64 17 -8 17 C-8.50833591 15.75336669 -9.00631145 14.50250613 -9.5 13.25 C-9.7784375 12.55390625 -10.056875 11.8578125 -10.34375 11.140625 C-11 9 -11 9 -11 5 C-13.41700987 5.14129287 -15.83350429 5.28786487 -18.25 5.4375 C-19.27287109 5.49647461 -19.27287109 5.49647461 -20.31640625 5.55664062 C-23.64448041 5.76666472 -26.80255402 6.01934002 -30 7 C-30.33380814 10.37436186 -30.33380814 10.37436186 -30 14 C-26.69562304 17.42484903 -22.15942593 18.40577395 -17.75 19.8125 C-10.13428769 22.37549559 -4.40614067 25.16809174 1 31.25 C2.81775256 36.24881954 3.0034107 41.20790066 1.19140625 46.25 C-2.34429541 52.70969023 -7.72378549 55.73484778 -14.640625 57.78125 C-25.04590244 60.04068167 -36.50511341 58.98742394 -46 54 C-45.48517081 48.147205 -44.54642808 42.6702363 -43 37 C-41.02 36.505 -41.02 36.505 -39 36 C-38.32471777 37.57967807 -37.66010306 39.16391903 -37 40.75 C-36.62875 41.63171875 -36.2575 42.5134375 -35.875 43.421875 C-35 46 -35 46 -35 50 C-32.77144426 50.0814222 -30.54202345 50.13938079 -28.3125 50.1875 C-27.07113281 50.22230469 -25.82976563 50.25710938 -24.55078125 50.29296875 C-20.77893965 49.9817607 -18.92603198 49.36396934 -16 47 C-15.50016567 44.00099405 -15.26342925 42.0620964 -17.04296875 39.49609375 C-19.98080476 37.25020315 -23.35038288 36.24583468 -26.8125 35.0625 C-34.90976945 32.29375625 -41.96698239 29.06603523 -46 21 C-46.81196117 14.75949844 -46.31997609 9.86643138 -42.61328125 4.6875 C-39.82739158 1.77344591 -36.76201125 0.33354876 -33 -1 C-32.3709375 -1.22429687 -31.741875 -1.44859375 -31.09375 -1.6796875 C-20.61104345 -4.81590708 -10.3650195 -2.54207778 0 0 Z " fill="#010101" transform="translate(660,509)"/>
<path d="M0 0 C1.6168484 3.23369679 0.00851816 6.30628257 -0.9375 9.625 C-1.13279297 10.33140625 -1.32808594 11.0378125 -1.52929688 11.765625 C-2.01314492 13.51219844 -2.50575123 15.25634124 -3 17 C-4.65 16.67 -6.3 16.34 -8 16 C-8.99 12.37 -9.98 8.74 -11 5 C-13.25056722 5.11433363 -15.50046674 5.24186436 -17.75 5.375 C-19.62945313 5.47941406 -19.62945313 5.47941406 -21.546875 5.5859375 C-24.62135631 5.95459702 -26.48304778 6.25466817 -29 8 C-30.08024658 10.40110217 -30.08024658 10.40110217 -30 13 C-27.89142195 15.66923065 -25.68732129 16.72325194 -22.54296875 17.90234375 C-21.67736328 18.23556641 -20.81175781 18.56878906 -19.91992188 18.91210938 C-19.01822266 19.25048828 -18.11652344 19.58886719 -17.1875 19.9375 C-3.19877379 25.19466792 -3.19877379 25.19466792 0.8125 30.3125 C3.40684833 36.18391991 3.37444208 40.94457398 1.12890625 46.85546875 C-1.72555797 52.27796307 -6.10698387 54.9375741 -11.8125 56.8125 C-23.63590066 59.80847483 -34.92751902 59.53624049 -46 54 C-45.71561048 52.10306139 -45.42216208 50.20747973 -45.125 48.3125 C-44.96257813 47.25675781 -44.80015625 46.20101562 -44.6328125 45.11328125 C-44.03237755 42.15928956 -43.38062281 39.67918063 -42 37 C-40.515 36.505 -40.515 36.505 -39 36 C-35.87680501 40.40086567 -34.96396425 44.79459302 -34 50 C-31.77144426 50.0814222 -29.54202345 50.13938079 -27.3125 50.1875 C-26.07113281 50.22230469 -24.82976563 50.25710938 -23.55078125 50.29296875 C-19.77788962 49.98167406 -17.92855875 49.36156336 -15 47 C-14.25 44 -14.25 44 -15 41 C-18.15017747 37.99509771 -21.73160291 36.91100879 -25.8125 35.5625 C-30.94727713 33.79557982 -35.43991959 31.93148026 -40 29 C-40 28.34 -40 27.68 -40 27 C-40.66 27 -41.32 27 -42 27 C-45.32823505 21.73029451 -45.85505198 17.06222244 -45 11 C-43.20448791 5.65404029 -39.87662768 2.68712138 -35 0 C-24.31152559 -5.07702534 -10.87305949 -4.02432423 0 0 Z " fill="#020101" transform="translate(937,509)"/>
<path d="M0 0 C0.33 20.13 0.66 40.26 1 61 C4.3 62.32 7.6 63.64 11 65 C11 66.32 11 67.64 11 69 C-3.19 69 -17.38 69 -32 69 C-32 67.35 -32 65.7 -32 64 C-28.38026598 62.68373308 -25.90432869 62 -22 62 C-22 45.5 -22 29 -22 12 C-25.3 11.34 -28.6 10.68 -32 10 C-32 8.35 -32 6.7 -32 5 C-27.92544453 4.28469845 -23.8503259 3.57270711 -19.7746582 2.86376953 C-18.38843185 2.62216499 -17.00236234 2.37965872 -15.61645508 2.13623047 C-13.62362537 1.78636069 -11.63017908 1.44000862 -9.63671875 1.09375 C-8.43748779 0.88427734 -7.23825684 0.67480469 -6.00268555 0.45898438 C-3 0 -3 0 0 0 Z " fill="#010101" transform="translate(381,38)"/>
<path d="M0 0 C2.97 0 5.94 0 9 0 C9 3.92323569 8.8071992 4.80002738 7 8 C1.55744474 18.20144769 -2.51172385 28.75128794 -6.5625 39.5625 C-7.26513236 41.42487852 -7.96818208 43.28709962 -8.67163086 45.14916992 C-10.4495575 49.86135679 -12.21888684 54.57671904 -13.98535156 59.29321289 C-14.95279648 61.87407472 -15.92304129 64.45386159 -16.89453125 67.03320312 C-27.26632538 94.21267866 -27.26632538 94.21267866 -36.12890625 121.90625 C-38.75335249 131.04549808 -38.75335249 131.04549808 -41.8125 134.75 C-44.51271142 138.76174268 -44.21575849 140.68000621 -43.39453125 145.27734375 C-43.26433594 145.84582031 -43.13414062 146.41429687 -43 147 C-43.99 147 -44.98 147 -46 147 C-46.495 147.99 -46.495 147.99 -47 149 C-47.19551338 147.39679026 -47.38111983 145.79237014 -47.5625 144.1875 C-47.66691406 143.29417969 -47.77132812 142.40085937 -47.87890625 141.48046875 C-48 139 -48 139 -47 136 C-48.98 135.01 -50.96 134.02 -53 133 C-52.09117298 125.75554535 -50.05840459 119.06799499 -47.875 112.125 C-47.66290894 111.44591583 -47.45081787 110.76683167 -47.2322998 110.06716919 C-43.25825247 97.39628038 -38.82391725 84.90280904 -34.25 72.4375 C-33.93448181 71.57699036 -33.61896362 70.71648071 -33.29388428 69.82989502 C-29.7644561 60.229107 -26.12073411 50.68521741 -22.29052734 41.20043945 C-20.70810257 37.27610983 -19.17772961 33.33510878 -17.6875 29.375 C-17.43677734 28.72144531 -17.18605469 28.06789063 -16.92773438 27.39453125 C-15.6317967 23.95491115 -14.5912145 20.63075259 -14 17 C-12.68 16.67 -11.36 16.34 -10 16 C-10.6745568 19.96549104 -11.84494875 23.52953984 -13.265625 27.28955078 C-13.49515366 27.90040024 -13.72468231 28.51124969 -13.96116638 29.14060974 C-14.45927949 30.46487736 -14.95913451 31.7884908 -15.46054077 33.11151505 C-16.26504295 35.23501874 -17.06442839 37.36038772 -17.86254883 39.48629761 C-20.13302942 45.53092101 -22.41336193 51.57181923 -24.69482422 57.61230469 C-26.36408056 62.03392349 -28.02835639 66.45738905 -29.6875 70.8828125 C-29.95843475 71.60537483 -30.22936951 72.32793716 -30.5085144 73.07239532 C-35.69480453 86.93467281 -40.46342912 100.9112137 -45 115 C-42.79729212 112.79729212 -42.45573022 111.68785536 -41.6328125 108.74609375 C-41.38660156 107.89080078 -41.14039063 107.03550781 -40.88671875 106.15429688 C-40.38658336 104.37048066 -39.88657914 102.58662767 -39.38671875 100.80273438 C-39.01353516 99.50625977 -39.01353516 99.50625977 -38.6328125 98.18359375 C-38.41512207 97.40556396 -38.19743164 96.62753418 -37.97314453 95.82592773 C-37.15312139 93.44465131 -36.23202648 91.24104034 -35.19189453 88.95263672 C-32.62031746 83.26069774 -30.46709249 77.4285482 -28.296875 71.57421875 C-27.85539124 70.39140823 -27.41390747 69.20859772 -26.95904541 67.98994446 C-25.55337499 64.22344596 -24.15124295 60.4556469 -22.75 56.6875 C-12.2578782 28.48372111 -12.2578782 28.48372111 -7.578125 16.70703125 C-7.27146912 15.93050705 -6.96481323 15.15398285 -6.64886475 14.35392761 C-4.67164227 9.43140081 -2.42532983 4.71832651 0 0 Z " fill="#0E0303" transform="translate(970,492)"/>
<path d="M0 0 C0.33 1.98 0.66 3.96 1 6 C1.70125 5.53980469 2.4025 5.07960938 3.125 4.60546875 C6.1005505 2.9438502 8.6954581 2.10913064 12 1.3125 C13.010625 1.06113281 14.02125 0.80976563 15.0625 0.55078125 C17.79467062 0.03849926 20.22999123 -0.10693049 23 0 C22.48351265 7.78808563 21.55123466 15.34925042 20 23 C18.02 23 16.04 23 14 23 C13.79503906 22.28972656 13.59007812 21.57945312 13.37890625 20.84765625 C13.10949219 19.92855469 12.84007812 19.00945313 12.5625 18.0625 C12.29566406 17.14597656 12.02882813 16.22945312 11.75390625 15.28515625 C11.20973949 13.0597507 11.20973949 13.0597507 10 12 C6.7 12 3.4 12 0 12 C0.495 32.295 0.495 32.295 1 53 C3.97 53.66 6.94 54.32 10 55 C10.495 57.475 10.495 57.475 11 60 C-1.54 60 -14.08 60 -27 60 C-27 58.35 -27 56.7 -27 55 C-24.36 54.34 -21.72 53.68 -19 53 C-18.67 38.81 -18.34 24.62 -18 10 C-20.64 9.67 -23.28 9.34 -26 9 C-26.33 7.35 -26.66 5.7 -27 4 C-23.06316446 3.32936905 -19.12542943 2.66417499 -15.1875 2 C-14.06794922 1.80921875 -12.94839844 1.6184375 -11.79492188 1.421875 C-10.72177734 1.24140625 -9.64863281 1.0609375 -8.54296875 0.875 C-7.55321045 0.70742188 -6.56345215 0.53984375 -5.54370117 0.3671875 C-3 0 -3 0 0 0 Z " fill="#010101" transform="translate(520,506)"/>
<path d="M0 0 C3.125 2.4375 3.125 2.4375 5 5 C5.33 5.33 5.66 5.66 6 6 C6.40256562 10.75027435 6.46650379 13.10031412 4.25 17.375 C1.0220747 21.14091285 -0.50826939 21.86438813 -5.4375 22.3125 C-10.1205565 21.90170557 -12.430353 20.46139548 -15.8125 17.3125 C-17.55441178 13.920356 -17.55054353 10.69231196 -17 7 C-13.50001012 -0.6666445 -7.71728312 -1.15082292 0 0 Z " fill="#020202" transform="translate(375,5)"/>
<path d="M0 0 C0.99 0.495 0.99 0.495 2 1 C1.50081055 1.70092773 1.00162109 2.40185547 0.48730469 3.12402344 C-4.85340948 10.84343867 -8.92207194 18.67175157 -12.75 27.25 C-13.30498616 28.47701685 -13.86097366 29.70358128 -14.41796875 30.9296875 C-15.47418027 33.25487258 -16.52834371 35.58098952 -17.58007812 37.90820312 C-19.3002271 41.65372695 -21.12050704 45.33225161 -23 49 C-30.8644079 49.1043948 -38.65205778 49.00984721 -46.5 48.5 C-53.7680262 48.06223472 -61.03200606 47.79767141 -68.3125 47.6875 C-69.78976562 47.64302734 -69.78976562 47.64302734 -71.296875 47.59765625 C-76.96537481 47.52550248 -76.96537481 47.52550248 -81.9921875 49.94140625 C-82.65476562 50.62074219 -83.31734375 51.30007813 -84 52 C-86.8125 53.25 -86.8125 53.25 -89 54 C-89.66 53.34 -90.32 52.68 -91 52 C-90.30132813 51.51789063 -89.60265625 51.03578125 -88.8828125 50.5390625 C-87.97273437 49.90742188 -87.06265625 49.27578125 -86.125 48.625 C-85.22007812 47.99851562 -84.31515625 47.37203125 -83.3828125 46.7265625 C-80.96505875 45.0701905 -80.96505875 45.0701905 -79 43 C-76.91552734 42.75708008 -76.91552734 42.75708008 -74.3359375 42.76953125 C-73.38662354 42.77082031 -72.43730957 42.77210938 -71.45922852 42.7734375 C-70.44143311 42.78632813 -69.4236377 42.79921875 -68.375 42.8125 C-67.33335693 42.81894531 -66.29171387 42.82539063 -65.21850586 42.83203125 C-58.05576301 42.90269261 -50.95959498 43.24849453 -43.81640625 43.77734375 C-37.21341279 44.16257469 -30.6113653 44.07912538 -24 44 C-23.76925781 43.4423999 -23.53851562 42.8847998 -23.30078125 42.31030273 C-9.62003619 9.4095979 -9.62003619 9.4095979 0 0 Z " fill="#190403" transform="translate(999,427)"/>
<path d="M0 0 C0.66 0.33 1.32 0.66 2 1 C1.73992661 1.69696487 1.47985321 2.39392975 1.2118988 3.11201477 C-1.27333994 9.77236525 -3.75819406 16.43285907 -6.24264622 23.093503 C-7.51906508 26.51545448 -8.79561812 29.93735576 -10.07250977 33.35913086 C-11.30684883 36.66689592 -12.54080852 39.9748023 -13.77451706 43.28280258 C-14.26104815 44.58718326 -14.74770448 45.89151722 -15.23448563 47.1958046 C-17.55168726 53.40491287 -19.86563518 59.61496479 -22.13623047 65.84130859 C-22.60801979 67.13345528 -22.60801979 67.13345528 -23.08934021 68.45170593 C-23.64306082 69.97198877 -24.19422558 71.49320708 -24.74183655 73.01570129 C-26.33980473 77.40455784 -28.14381896 81.65713235 -30.0970459 85.9002533 C-31.84499965 89.96497831 -32.96306076 94.23442819 -34.15429688 98.48828125 C-35.2347576 102.15551277 -36.1699665 104.44738266 -39 107 C-34.53303409 85.32858123 -25.66314285 64.51402197 -17.875 43.875 C-17.44229797 42.72696899 -17.00959595 41.57893799 -16.56378174 40.39611816 C-12.46484556 29.53650338 -8.34787118 18.68618862 -3.9453125 7.9453125 C-3.65776093 7.24211884 -3.37020935 6.53892517 -3.07394409 5.81442261 C-1.12767352 1.12767352 -1.12767352 1.12767352 0 0 Z " fill="#F01106" transform="translate(963,503)"/>
<path d="M0 0 C1.16161819 3.48485456 0.8201372 4.21241461 -0.39941406 7.55981445 C-0.7301593 8.48119705 -1.06090454 9.40257965 -1.40167236 10.35188293 C-1.76927673 11.34564438 -2.1368811 12.33940582 -2.515625 13.36328125 C-2.88725769 14.38802048 -3.25889038 15.4127597 -3.64178467 16.46855164 C-4.43118387 18.63970913 -5.22503282 20.80925309 -6.02294922 22.97729492 C-7.24002412 26.28538489 -8.44345721 29.59818086 -9.64453125 32.91210938 C-10.41326055 35.02112581 -11.18276685 37.12985923 -11.953125 39.23828125 C-12.49238617 40.71981438 -12.49238617 40.71981438 -13.0425415 42.23127747 C-14.79286606 46.97644153 -16.61026161 51.5400595 -19 56 C-20.20243861 52.54577964 -19.80690984 50.68349845 -18.49291992 47.31079102 C-18.13892624 46.38625626 -17.78493256 45.4617215 -17.42021179 44.50917053 C-17.02759659 43.51743332 -16.63498138 42.52569611 -16.23046875 41.50390625 C-15.83426834 40.4782103 -15.43806793 39.45251434 -15.02986145 38.39573669 C-13.75936759 35.11388626 -12.4736373 31.83824728 -11.1875 28.5625 C-10.33167918 26.35911332 -9.47684945 24.1553414 -8.62304688 21.95117188 C-5.77964715 14.62181568 -2.92548787 7.29703458 0 0 Z " fill="#E1160C" transform="translate(960,529)"/>
<path d="M0 0 C0.66 0 1.32 0 2 0 C1.38109373 4.68401563 0.08668362 8.87883785 -1.6171875 13.26171875 C-1.87501007 13.93419144 -2.13283264 14.60666412 -2.39846802 15.29951477 C-2.94194428 16.71161974 -3.48837003 18.12259273 -4.03759766 19.5324707 C-4.87511321 21.68779135 -5.69776535 23.84839867 -6.51953125 26.00976562 C-7.0511937 27.38576074 -7.58371634 28.76142386 -8.1171875 30.13671875 C-8.36105194 30.78049973 -8.60491638 31.4242807 -8.85617065 32.08757019 C-10.13765554 35.34033342 -11.28956807 37.75626799 -14 40 C-14.66 40.66 -15.32 41.32 -16 42 C-13.99076056 30.9491831 -13.99076056 30.9491831 -11.56884766 28.62890625 C-9.49620948 26.47692338 -8.7976148 24.36306471 -7.7734375 21.5625 C-7.3815625 20.50289062 -6.9896875 19.44328125 -6.5859375 18.3515625 C-5.98652344 16.69253906 -5.98652344 16.69253906 -5.375 15 C-4.96765625 13.89398437 -4.5603125 12.78796875 -4.140625 11.6484375 C-2.71875856 7.77832422 -1.30386145 3.91158434 0 0 Z " fill="#110506" transform="translate(952,554)"/>
<path d="M0 0 C0.66 0 1.32 0 2 0 C0.84182172 5.89618035 -0.69940672 11.62756668 -2.4375 17.375 C-2.64270264 18.07689453 -2.84790527 18.77878906 -3.05932617 19.50195312 C-4.18177838 23.13664389 -5.19063078 25.45816672 -8 28 C-6.64909235 21.50121609 -4.92169754 15.24896681 -2.875 8.9375 C-2.45927734 7.6390918 -2.45927734 7.6390918 -2.03515625 6.31445312 C-1.36031038 4.2084686 -0.68188659 2.10371313 0 0 Z " fill="#EB1309" transform="translate(932,582)"/>
<path d="M0 0 C1.39648652 4.18945956 -0.21562196 7.00653608 -1.75 10.9375 C-2.01554688 11.65357422 -2.28109375 12.36964844 -2.5546875 13.10742188 C-3.9713383 16.81753403 -5.36512387 19.9603688 -8 23 C-7.35692944 17.89562747 -5.83831927 13.45238886 -4 8.6875 C-3.72671875 7.95982422 -3.4534375 7.23214844 -3.171875 6.48242188 C-1.14074248 1.14074248 -1.14074248 1.14074248 0 0 Z " fill="#EB1208" transform="translate(948,562)"/>
<path d="M0 0 C-0.99 1.98 -1.98 3.96 -3 6 C-5.31 6 -7.62 6 -10 6 C-8.45899296 2.91798591 -7.51635481 1.27706844 -4.4375 -0.375 C-2 -1 -2 -1 0 0 Z " fill="#0B0203" transform="translate(991,470)"/>
<path d="M0 0 C1 3 1 3 0.25 5.5 C-0.95304802 7.90609604 -1.99925536 9.24934844 -4 11 C-4.66 11.66 -5.32 12.32 -6 13 C-5.25616878 8.90892832 -4.36133698 4.93275129 -3 1 C-2.01 0.67 -1.02 0.34 0 0 Z " fill="#450C09" transform="translate(942,583)"/>
<path d="M0 0 C0.99 0 1.98 0 3 0 C2.32829194 3.8063457 1.27253436 7.35206816 0 11 C-0.99 10.67 -1.98 10.34 -3 10 C-2.25 3.375 -2.25 3.375 0 0 Z " fill="#190707" transform="translate(957,508)"/>
<path d="M0 0 C2 2 2 2 2 6 C0.02 6.99 0.02 6.99 -2 8 C-1.125 2.25 -1.125 2.25 0 0 Z " fill="#720B07" transform="translate(965,516)"/>
<path d="M0 0 C0.6875 1.75 0.6875 1.75 1 4 C-0.4375 6.25 -0.4375 6.25 -2 8 C-2.33 7.01 -2.66 6.02 -3 5 C-1.5625 2.3125 -1.5625 2.3125 0 0 Z " fill="#F31005" transform="translate(959,514)"/>
</svg>
